<svg width="475" height="298" viewBox="0 0 475 298" fill="none" xmlns="http://www.w3.org/2000/svg">
<path d="M359 100.091C364.77 98.3414 376.48 95.3714 385 93.5014C393.52 91.6314 401.85 90.0814 403.5 90.0614C405.15 90.0414 401.55 91.3114 395.5 92.8914C389.45 94.4614 381.13 96.8814 377 98.2514C372.88 99.6214 364.89 102.591 359.25 104.841C353.61 107.091 344.05 111.411 338 114.431C331.95 117.451 322.16 122.811 316.25 126.321C310.34 129.841 301.9 135.291 297.5 138.431C293.1 141.581 285.25 147.591 280.06 151.791C274.88 155.991 266.37 163.701 261.16 168.931C255.95 174.161 248.44 182.481 244.46 187.431C240.49 192.381 235.22 199.581 232.74 203.431C230.27 207.281 226.11 214.701 223.5 219.931C220.89 225.161 217.25 233.931 215.41 239.431C213.56 244.931 211.79 251.451 211.46 253.931C210.98 257.471 210.13 259.011 207.43 261.181C205.54 262.691 202.09 264.611 199.75 265.451C197.41 266.291 195.27 266.971 195 266.961C194.73 266.951 194.88 263.011 195.33 258.191C195.79 253.371 197.2 245.381 198.47 240.431C199.73 235.481 202.17 227.831 203.89 223.431C205.6 219.031 208.91 211.951 211.25 207.691C213.59 203.431 218.43 195.811 222 190.751C225.57 185.701 233.23 176.631 239 170.611C244.77 164.581 254 156.041 259.5 151.611C265 147.191 274.9 140.021 281.5 135.661C288.1 131.311 300.7 124.191 309.5 119.841C318.3 115.481 330.68 109.971 337 107.601C343.32 105.221 353.23 101.841 359 100.091Z" fill="#E17B21"/>
<path fill-rule="evenodd" clip-rule="evenodd" d="M187 5.43142C184.7 1.21142 183.48 -0.04858 181.75 0.00142003C180.51 0.04142 177.25 0.88142 174.5 1.85142C171.75 2.83142 168.15 4.33142 166.5 5.18142C164.85 6.03142 162.6 7.66142 161.5 8.80142C159.9 10.4714 159.1 10.6714 157.5 9.82142C155.97 9.00142 153.84 9.27142 148.5 10.9414C144.65 12.1514 140.38 13.7114 139 14.4114C137.63 15.1114 135.38 17.3114 134 19.3014C132.63 21.2914 129.7 24.2514 127.5 25.8914C124.72 27.9514 123.09 30.1614 122.16 33.1414C121.42 35.5014 115.64 48.2314 109.3 61.4314L97.79 85.4314C82.55 100.191 78.94 104.511 78.46 106.431C78.05 108.081 76.82 111.231 75.73 113.431L73.75 117.431C77.11 119.751 78.08 121.331 78.06 122.431C78.04 123.561 76.05 126.071 73.51 128.181C71.03 130.241 68.73 132.941 68.4 134.181C68.07 135.421 68.33 137.561 68.98 138.931C70.11 141.311 69.66 141.901 59.54 151.431C50.58 159.871 48.92 161.901 48.94 164.431C48.96 166.081 48.64 167.881 48.23 168.431C47.83 168.981 45.03 170.481 42 171.751C38.97 173.031 35.94 174.271 35.25 174.501C34.56 174.741 32.65 173.581 31 171.931C29.35 170.281 27.1 168.931 26 168.931C24.9 168.931 22.36 170.391 20.36 172.181C18.37 173.971 16.34 176.441 15.86 177.681C15.35 179.031 15.4 180.731 16 181.931C16.63 183.191 16.65 184.581 16.07 185.681C15.52 186.711 13.98 187.431 12.32 187.431C9.7 187.431 9.5 187.711 9.5 191.431C9.5 194.971 9.21 195.461 7 195.671C5.62 195.791 3.94 196.581 3.25 197.421C2.24 198.641 2.29 199.511 3.5 201.931C4.33 203.581 5 205.831 5 206.931C5 208.031 3.87 210.281 2.5 211.931C1.12 213.581 0 215.381 0 215.931C0 216.481 1.9 216.821 4.22 216.681C7.79 216.471 8.79 215.901 10.79 212.931C12.08 211.011 13.89 209.431 14.82 209.431C16.02 209.431 16.5 210.291 16.5 212.431C16.51 214.081 16.84 215.991 17.25 216.681C17.66 217.371 19.24 217.931 20.75 217.921C22.36 217.921 25.62 219.471 28.63 221.671C31.44 223.741 35.23 226.331 37.05 227.431C38.86 228.531 41.37 230.101 42.62 230.931C44.72 232.321 45.08 232.241 47.41 229.931L49.93 227.431C62.56 233.631 66.73 236.011 67.36 236.721C67.99 237.441 69.06 238.001 69.75 237.971C70.44 237.951 74.01 233.991 77.69 229.181C81.37 224.371 91.61 213.211 100.44 204.381C109.27 195.561 121.9 184.031 128.5 178.771C135.1 173.511 144.78 166.171 150 162.471C155.22 158.761 165.46 152.181 172.75 147.831C180.04 143.491 192.75 136.561 201 132.431C209.25 128.311 221.29 122.711 227.75 120.001C234.21 117.281 246.25 112.811 254.5 110.051C262.75 107.301 276.93 103.181 286 100.911C295.07 98.6414 309.02 95.6714 317 94.3214C324.98 92.9714 338.93 91.0014 348 89.9414C357.07 88.8814 371.36 87.5514 379.75 86.9714C388.14 86.4014 402.31 85.9614 411.25 85.9914L427.5 86.0514C402.7 91.1314 390.55 94.1014 384.5 95.9314C378.45 97.7614 368.1 101.381 361.5 103.971C354.9 106.551 344.44 111.201 338.25 114.301C332.06 117.401 322.16 122.811 316.25 126.321C310.34 129.841 301.9 135.291 297.5 138.431C293.1 141.581 285.25 147.591 280.06 151.791C274.88 155.991 266.37 163.701 261.16 168.931C255.95 174.161 248.44 182.481 244.46 187.431C240.49 192.381 235.22 199.581 232.74 203.431C230.27 207.281 226.11 214.701 223.5 219.931C220.89 225.161 217.26 233.931 215.42 239.431C213.59 244.931 211.77 251.231 211.37 253.431C210.76 256.831 211.05 257.991 213.33 261.181C215.6 264.371 216.33 264.801 218.25 264.051C219.58 263.531 222.75 263.571 226 264.151C229.02 264.691 232.51 265.311 233.75 265.531C235.06 265.761 236.68 267.291 237.62 269.181C238.51 270.971 240.11 273.331 241.19 274.431C243.12 276.421 243.11 276.481 240.18 283.431C238.44 287.551 237.49 291.211 237.87 292.331C238.21 293.371 239.74 295.051 241.25 296.081C242.76 297.101 244.34 297.921 244.75 297.921C245.16 297.911 247.63 295.771 250.24 293.171C254.92 288.501 255.03 288.451 258.49 289.681C261.74 290.841 262.18 290.751 264.5 288.431C265.87 287.061 268.58 282.671 270.51 278.681C272.43 274.691 274.01 270.871 274.01 270.181C274 269.491 273.13 267.471 272.07 265.681C271.01 263.891 269.7 259.951 269.16 256.931C268.4 252.671 268.5 250.701 269.59 248.181C270.37 246.391 271.45 244.701 272 244.431C272.55 244.161 274.57 244.831 276.5 245.931C278.43 247.031 280.45 247.931 281 247.931C281.55 247.931 282.18 247.371 282.39 246.681C282.61 245.991 281.69 242.731 280.35 239.431C279.01 236.131 276.77 232.311 275.37 230.931C272.99 228.591 272.87 228.021 273.51 221.931C273.89 218.351 274.6 214.421 275.1 213.181C275.64 211.821 277.26 210.631 279.17 210.181C281.05 209.741 283.79 207.731 285.92 205.261C289.3 201.331 289.85 201.071 295.6 200.761C299.96 200.521 302.19 200.861 303.43 201.931C304.47 202.831 305.09 204.641 304.98 206.431C304.88 208.081 304.86 210.101 304.93 210.931C305 211.761 305.61 213.211 306.28 214.171C307.13 215.381 310.23 216.321 316.5 217.281C321.45 218.041 326.62 219.221 328 219.911C329.57 220.701 331.99 220.911 334.5 220.501C337.44 220.001 339.96 220.391 344 221.961C348.4 223.671 350.6 223.961 355 223.401C358.02 223.021 361.62 222.231 363 221.651C364.37 221.071 368.2 220.291 371.5 219.901C374.8 219.521 378.96 218.581 380.75 217.821C383.64 216.581 384.51 216.641 388.75 218.371C391.36 219.441 395.07 220.281 397 220.241C398.93 220.201 401.62 219.841 403 219.431C404.96 218.861 406.26 219.351 409 221.681C410.93 223.321 414.86 225.851 417.75 227.301C420.64 228.751 424.91 230.231 427.25 230.611C430.45 231.111 432.24 230.841 434.5 229.501C437.34 227.811 438.01 227.801 446.75 229.321C451.84 230.211 456.34 230.731 456.75 230.481C457.16 230.241 458.74 230.691 460.25 231.481C462.73 232.791 463.27 232.741 465.75 231.021C467.26 229.971 469.85 228.591 471.5 227.961C474.48 226.821 474.49 226.771 473.8 221.121C473.42 217.991 472.83 214.761 472.5 213.931C472.17 213.101 470.49 211.531 468.77 210.431C465.75 208.501 465.63 208.161 465.45 200.931C465.35 196.811 464.98 192.641 464.64 191.681C464.26 190.651 462.97 189.931 461.5 189.931C459.57 189.931 458.88 189.301 458.46 187.181L457.93 184.431C451.57 190.901 450.96 191.161 450.52 189.681C450.23 188.721 451.01 186.591 452.25 184.951C453.72 183.001 454.85 182.311 455.5 182.941C456.05 183.481 456.73 183.711 457 183.471C457.27 183.221 456.95 179.291 456.27 174.731C455.59 170.161 455.14 164.551 455.27 162.251C455.44 159.241 454.87 157.221 453.25 155.001C452.01 153.311 450.72 150.021 450.38 147.681C450.04 145.341 449.09 142.311 448.28 140.931C447.46 139.561 447.05 137.531 447.38 136.431C447.71 135.321 447.09 132.661 445.98 130.431C444.88 128.231 443.99 124.521 443.99 122.181C444 119.841 443.05 113.991 441.89 109.181C440.73 104.371 438.92 99.3114 437.86 97.9314C436.72 96.4514 435.94 93.9014 435.97 91.6814C435.99 89.2314 434.8 85.7614 432.56 81.6814C430.67 78.2414 427.95 74.3114 426.53 72.9314C425.11 71.5614 423.97 69.5314 423.99 68.4314C424.02 67.3314 423.34 64.4114 422.48 61.9314C421.62 59.4514 419.47 55.9614 417.71 54.1614C415.94 52.3614 413.94 50.9014 413.25 50.9114C412.56 50.9214 410.09 48.9614 407.75 46.5614C404.95 43.6714 401.97 41.7514 399 40.9014C396.52 40.2014 392.48 39.5314 390 39.4114C387.52 39.3014 382.13 38.2714 378 37.1314C373.88 36.0014 364.2 33.8514 356.5 32.3714L342.5 29.6814C325.02 36.8014 324.07 36.9814 317 36.3714C311.993 35.9381 308.827 36.1114 307.5 36.8914C305.94 37.8114 304.18 37.7214 299.5 36.5114C296.2 35.6614 289.56 34.9614 284.75 34.9514C279.94 34.9414 275.32 35.1614 274.5 35.4314C273.68 35.7014 273 36.8314 273 37.9314C273 39.0314 272.55 40.1614 272 40.4314C271.45 40.7014 269.09 39.7214 266.75 38.2414C263.35 36.0814 261.44 35.5814 257.25 35.7414C254.29 35.8514 252 35.4914 252 34.9314C252 34.3814 249.52 33.4814 246.5 32.9314C243.44 32.3714 240.11 31.0414 239 29.9314C237.9 28.8314 237 27.0314 237 25.9314C237 24.7414 235.88 23.3814 234.25 22.5714C232.74 21.8214 230.56 19.5914 229.41 17.6114C227.46 14.2714 227 14.0314 222.91 14.2214C220.48 14.3414 217.26 14.0914 215.75 13.6814C213.58 13.0914 212.42 13.4514 210.25 15.4014L207.5 17.8714C202.87 13.1414 201.91 12.8514 198.5 13.3514C195.76 13.7614 193.79 13.4814 192.25 12.4414C191.01 11.6114 188.65 8.45142 187 5.43142ZM349 95.9314C349 95.3814 348.89 94.9714 348.75 95.0214C348.61 95.0714 345.6 95.7714 342.05 96.5914C338.51 97.4014 335.69 98.4914 335.8 99.0014C335.91 99.5114 336.79 99.7314 337.75 99.4814C338.71 99.2314 341.64 98.5514 344.25 97.9814C346.86 97.4014 349 96.4814 349 95.9314ZM323.02 102.181C323.01 101.491 322.66 100.971 322.25 101.011C321.84 101.061 317.9 102.211 313.5 103.561C307.21 105.511 305.77 106.291 306.76 107.231C307.74 108.171 309.66 107.881 315.53 105.931C319.66 104.561 323.03 102.871 323.02 102.181ZM285.03 115.681C285.01 115.271 283.99 114.961 282.75 115.001C281.51 115.031 276.11 116.941 270.75 119.251C265.39 121.551 261.15 123.881 261.34 124.431C261.52 124.981 262.53 125.571 263.58 125.751C264.64 125.921 269.9 123.901 275.28 121.251C280.65 118.601 285.04 116.091 285.03 115.681ZM246.78 133.221C245.52 132.551 244.27 131.991 244 131.981C243.72 131.971 240.35 133.671 236.5 135.761C232.65 137.861 226.8 141.281 223.5 143.361L217.5 147.161C223.95 149.911 224.17 149.831 236.53 142.181C248.36 134.861 248.93 134.361 246.78 133.221ZM211.17 159.431C206 157.451 204.18 156.891 203.8 156.901C203.41 156.921 198.69 160.281 193.3 164.371C187.91 168.471 182.15 172.961 180.5 174.351C177.98 176.481 177.74 177.041 179 177.891C179.82 178.451 182.07 179.171 184 179.511C187.15 180.051 187.94 179.681 192 175.671C194.47 173.231 199.8 168.571 203.83 165.331L211.17 159.431ZM174 192.931C169.74 191.271 167.35 190.551 165.96 190.271C163.8 189.831 162.35 190.891 156.46 197.191C152.63 201.281 147.36 207.401 144.75 210.781C141.72 214.701 140.45 217.081 141.25 217.341C141.94 217.571 144.07 218.251 146 218.861C147.92 219.471 150.17 219.971 151 219.991C151.82 220.001 153.74 218.191 155.25 215.971C156.76 213.751 161.6 207.661 166 202.431L174 192.931ZM137.5 234.131C135.3 233.491 132.56 232.961 131.4 232.951C129.84 232.931 128.15 234.901 124.77 240.681C122.27 244.941 118.59 251.691 116.61 255.681C114.62 259.671 112.99 263.271 112.98 263.681C112.98 264.091 115.79 264.991 119.23 265.671C122.68 266.351 126.17 266.921 127 266.941C127.97 266.961 129.69 263.901 131.88 258.201C133.74 253.381 136.78 246.391 138.63 242.681C140.48 238.971 141.89 235.791 141.75 235.611C141.61 235.431 139.7 234.771 137.5 234.131Z" fill="#1B2D3A"/>
</svg>
