<svg width="478" height="301" viewBox="0 0 478 301" fill="none" xmlns="http://www.w3.org/2000/svg">
<path fill-rule="evenodd" clip-rule="evenodd" d="M212.593 257.429C212.741 256.836 212.859 256.178 212.96 255.431C213.206 253.584 214.251 249.493 215.533 245.253C214.247 249.402 213.167 253.298 212.87 254.931C212.693 255.918 212.592 256.716 212.593 257.429ZM337.839 116.771C338.418 116.475 338.973 116.194 339.5 115.931C341.526 114.92 343.946 113.763 346.48 112.586C346.505 112.575 346.531 112.563 346.556 112.552C344.036 113.713 341.684 114.833 339.75 115.801C339.146 116.104 338.507 116.428 337.839 116.771ZM386 97.4314C387.06 97.1107 388.308 96.7549 389.779 96.3589C388.082 96.8389 386.392 97.3285 384.805 97.7987C385.219 97.6696 385.618 97.5469 386 97.4314ZM350.25 96.5214C350.39 96.4714 350.5 96.8814 350.5 97.4314C350.5 97.9814 348.36 98.9014 345.75 99.4814C343.14 100.051 340.21 100.731 339.25 100.981C338.29 101.231 337.41 101.011 337.3 100.501C337.19 99.9914 340.01 98.9014 343.55 98.0914C347.1 97.2714 350.11 96.5714 350.25 96.5214ZM323.75 102.511C324.16 102.471 324.51 102.991 324.52 103.681C324.53 104.371 321.16 106.061 317.03 107.431C311.16 109.381 309.24 109.671 308.26 108.731C307.27 107.791 308.71 107.011 315 105.061C319.4 103.711 323.34 102.561 323.75 102.511ZM284.25 116.501C285.49 116.461 286.51 116.771 286.53 117.181C286.54 117.591 282.15 120.101 276.78 122.751C271.4 125.401 266.14 127.421 265.08 127.251C264.03 127.071 263.02 126.481 262.84 125.931C262.65 125.381 266.89 123.051 272.25 120.751C277.61 118.441 283.01 116.531 284.25 116.501ZM245.5 133.481C245.77 133.491 247.02 134.051 248.28 134.721C250.43 135.861 249.86 136.361 238.03 143.681C225.67 151.331 225.45 151.411 219 148.661L225 144.861C228.3 142.781 234.15 139.361 238 137.261C241.85 135.171 245.22 133.471 245.5 133.481ZM205.3 158.401C205.68 158.391 207.5 158.951 212.67 160.931L205.33 166.831C201.3 170.071 195.97 174.731 193.5 177.171C189.44 181.181 188.65 181.551 185.5 181.011C183.57 180.671 181.32 179.951 180.5 179.391C179.24 178.541 179.48 177.981 182 175.851C183.65 174.461 189.41 169.971 194.8 165.871C200.19 161.781 204.91 158.421 205.3 158.401ZM167.46 191.771C168.85 192.051 171.24 192.771 175.5 194.431L167.5 203.931C163.1 209.161 158.26 215.251 156.75 217.471C155.24 219.691 153.32 221.501 152.5 221.491C151.67 221.471 149.42 220.971 147.5 220.361C145.57 219.751 143.44 219.071 142.75 218.841C141.95 218.581 143.22 216.201 146.25 212.281C148.86 208.901 154.13 202.781 157.96 198.691C163.85 192.391 165.3 191.331 167.46 191.771ZM132.9 234.451C134.06 234.461 136.8 234.991 139 235.631C141.2 236.271 143.11 236.931 143.25 237.111C143.39 237.291 141.98 240.471 140.13 244.181C138.28 247.891 135.24 254.881 133.38 259.701C131.19 265.401 129.47 268.461 128.5 268.441C127.67 268.421 124.18 267.851 120.73 267.171C117.29 266.491 114.48 265.591 114.48 265.181C114.49 264.771 116.12 261.171 118.11 257.181C120.09 253.191 123.77 246.441 126.27 242.181C129.65 236.401 131.34 234.431 132.9 234.451Z" fill="#1B2D3A" class="svg-elem-1"></path>
<path fill-rule="evenodd" clip-rule="evenodd" d="M384.805 97.7987C386.392 97.3285 388.082 96.8389 389.779 96.3589C388.308 96.7549 387.06 97.1107 386 97.4314C385.618 97.5469 385.219 97.6696 384.805 97.7987ZM346.48 112.586C343.989 113.735 341.665 114.842 339.75 115.801C339.146 116.104 338.507 116.428 337.839 116.771C338.418 116.475 338.973 116.194 339.5 115.931C341.526 114.92 343.946 113.763 346.48 112.586ZM215.533 245.253C214.247 249.402 213.167 253.298 212.87 254.931C212.693 255.918 212.592 256.716 212.593 257.429C212.741 256.836 212.859 256.178 212.96 255.431C213.206 253.584 214.251 249.493 215.533 245.253Z" fill="#E17B21" class="svg-elem-2"></path>
<path d="M225 221.431C227.61 216.201 231.77 208.781 234.24 204.931C236.72 201.081 241.99 193.881 245.96 188.931C249.94 183.981 257.45 175.661 262.66 170.431C267.87 165.201 276.38 157.491 281.56 153.291C286.75 149.091 294.6 143.081 299 139.931C303.4 136.791 311.84 131.341 317.75 127.821C323.145 124.617 331.774 119.871 337.839 116.771C338.507 116.428 339.146 116.104 339.75 115.801C341.665 114.842 343.989 113.735 346.48 112.586L346.556 112.552C351.569 110.226 357.018 107.83 360.75 106.341C366.39 104.091 374.38 101.121 378.5 99.7514C380.099 99.2211 382.325 98.5335 384.805 97.7987C385.219 97.6696 385.618 97.5469 386 97.4314C387.06 97.1107 388.308 96.7549 389.779 96.3589C392.279 95.6514 394.791 94.9647 397 94.3914C403.05 92.8114 406.65 91.5414 405 91.5614C403.35 91.5814 395.02 93.1314 386.5 95.0014C377.98 96.8714 366.27 99.8414 360.5 101.591C354.73 103.341 344.82 106.721 338.5 109.101C332.18 111.471 319.8 116.981 311 121.341C302.2 125.691 289.6 132.811 283 137.161C276.4 141.521 266.5 148.691 261 153.111C255.5 157.541 246.27 166.081 240.5 172.111C234.73 178.131 227.07 187.201 223.5 192.251C219.93 197.311 215.09 204.931 212.75 209.191C210.41 213.451 207.1 220.531 205.39 224.931C203.67 229.331 201.23 236.981 199.97 241.931C198.7 246.881 197.29 254.871 196.83 259.691C196.38 264.511 196.23 268.451 196.5 268.461C196.77 268.471 198.91 267.791 201.25 266.951C203.59 266.111 207.04 264.191 208.93 262.681C211.06 260.969 212.039 259.649 212.593 257.429C212.592 256.716 212.693 255.918 212.87 254.931C213.167 253.298 214.247 249.402 215.533 245.253C215.972 243.802 216.438 242.333 216.91 240.931C218.75 235.431 222.39 226.661 225 221.431Z" fill="#E17B21" class="svg-elem-3"></path>
<path d="M188.5 6.93142C186.2 2.71142 184.98 1.45142 183.25 1.50142C182.01 1.54142 178.75 2.38142 176 3.35142C173.25 4.33142 169.65 5.83142 168 6.68142C166.35 7.53142 164.1 9.16142 163 10.3014C161.4 11.9714 160.6 12.1714 159 11.3214C157.47 10.5014 155.34 10.7714 150 12.4414C146.15 13.6514 141.88 15.2114 140.5 15.9114C139.13 16.6114 136.88 18.8114 135.5 20.8014C134.13 22.7914 131.2 25.7514 129 27.3914C126.22 29.4514 124.59 31.6614 123.66 34.6414C122.92 37.0014 117.14 49.7314 110.8 62.9314L99.29 86.9314C84.05 101.691 80.44 106.011 79.96 107.931C79.55 109.581 78.32 112.731 77.23 114.931L75.25 118.931C78.61 121.251 79.58 122.831 79.56 123.931C79.54 125.061 77.55 127.571 75.01 129.681C72.53 131.741 70.23 134.441 69.9 135.681C69.57 136.921 69.83 139.061 70.48 140.431C71.61 142.811 71.16 143.401 61.04 152.931C52.08 161.371 50.42 163.401 50.44 165.931C50.46 167.581 50.14 169.381 49.73 169.931C49.33 170.481 46.53 171.981 43.5 173.251C40.47 174.531 37.44 175.771 36.75 176.001C36.06 176.241 34.15 175.081 32.5 173.431C30.85 171.781 28.6 170.431 27.5 170.431C26.4 170.431 23.86 171.891 21.86 173.681C19.87 175.471 17.84 177.941 17.36 179.181C16.85 180.531 16.9 182.231 17.5 183.431C18.13 184.691 18.15 186.081 17.57 187.181C17.02 188.211 15.48 188.931 13.82 188.931C11.2 188.931 11 189.211 11 192.931C11 196.471 10.71 196.961 8.5 197.171C7.12 197.291 5.44 198.081 4.75 198.921C3.74 200.141 3.79 201.011 5 203.431C5.83 205.081 6.5 207.331 6.5 208.431C6.5 209.531 5.37 211.781 4 213.431C2.62 215.081 1.5 216.881 1.5 217.431C1.5 217.981 3.4 218.321 5.72 218.181C9.29 217.971 10.29 217.401 12.29 214.431C13.58 212.511 15.39 210.931 16.32 210.931C17.52 210.931 18 211.791 18 213.931C18.01 215.581 18.34 217.491 18.75 218.181C19.16 218.871 20.74 219.431 22.25 219.421C23.86 219.421 27.12 220.971 30.13 223.171C32.94 225.241 36.73 227.831 38.55 228.931C40.36 230.031 42.87 231.601 44.12 232.431C46.22 233.821 46.58 233.741 48.91 231.431L51.43 228.931C64.06 235.131 68.23 237.511 68.86 238.221C69.49 238.941 70.56 239.501 71.25 239.471C71.94 239.451 75.51 235.491 79.19 230.681C82.87 225.871 93.11 214.711 101.94 205.881C110.77 197.061 123.4 185.531 130 180.271C136.6 175.011 146.28 167.671 151.5 163.971C156.72 160.261 166.96 153.681 174.25 149.331C181.54 144.991 194.25 138.061 202.5 133.931C210.75 129.811 222.79 124.211 229.25 121.501C235.71 118.781 247.75 114.311 256 111.551C264.25 108.801 278.43 104.681 287.5 102.411C296.57 100.141 310.52 97.1714 318.5 95.8214C326.48 94.4714 340.43 92.5014 349.5 91.4414C358.57 90.3814 372.86 89.0514 381.25 88.4714C389.64 87.9014 403.81 87.4614 412.75 87.4914L429 87.5514C410.4 91.3614 398.916 93.9845 391.784 95.83C391.073 96.0139 390.406 96.1901 389.779 96.3589C388.082 96.8389 386.392 97.3285 384.805 97.7987C378.658 99.7144 369.183 103.045 363 105.471C358.463 107.245 352.101 109.997 346.556 112.552L346.48 112.586C343.946 113.763 341.526 114.92 339.5 115.931C338.973 116.194 338.418 116.475 337.839 116.771C331.666 119.939 323.083 124.654 317.75 127.821C311.84 131.341 303.4 136.791 299 139.931C294.6 143.081 286.75 149.091 281.56 153.291C276.38 157.491 267.87 165.201 262.66 170.431C257.45 175.661 249.94 183.981 245.96 188.931C241.99 193.881 236.72 201.081 234.24 204.931C231.77 208.781 227.61 216.201 225 221.431C222.39 226.661 218.76 235.431 216.92 240.931C216.449 242.347 215.979 243.815 215.533 245.253C214.251 249.493 213.206 253.584 212.96 255.431C212.859 256.178 212.741 256.836 212.593 257.429C212.596 259.175 213.212 260.417 214.83 262.681C217.1 265.871 217.83 266.301 219.75 265.551C221.08 265.031 224.25 265.071 227.5 265.651C230.52 266.191 234.01 266.811 235.25 267.031C236.56 267.261 238.18 268.791 239.12 270.681C240.01 272.471 241.61 274.831 242.69 275.931C244.62 277.921 244.61 277.981 241.68 284.931C239.94 289.051 238.99 292.711 239.37 293.831C239.71 294.871 241.24 296.551 242.75 297.581C244.26 298.601 245.84 299.421 246.25 299.421C246.66 299.411 249.13 297.271 251.74 294.671C256.42 290.001 256.53 289.951 259.99 291.181C263.24 292.341 263.68 292.251 266 289.931C267.37 288.561 270.08 284.171 272.01 280.181C273.93 276.191 275.51 272.371 275.51 271.681C275.5 270.991 274.63 268.971 273.57 267.181C272.51 265.391 271.2 261.451 270.66 258.431C269.9 254.171 270 252.201 271.09 249.681C271.87 247.891 272.95 246.201 273.5 245.931C274.05 245.661 276.07 246.331 278 247.431C279.93 248.531 281.95 249.431 282.5 249.431C283.05 249.431 283.68 248.871 283.89 248.181C284.11 247.491 283.19 244.231 281.85 240.931C280.51 237.631 278.27 233.811 276.87 232.431C274.49 230.091 274.37 229.521 275.01 223.431C275.39 219.851 276.1 215.921 276.6 214.681C277.14 213.321 278.76 212.131 280.67 211.681C282.55 211.241 285.29 209.231 287.42 206.761C290.8 202.831 291.35 202.571 297.1 202.261C301.46 202.021 303.69 202.361 304.93 203.431C305.97 204.331 306.59 206.141 306.48 207.931C306.38 209.581 306.36 211.601 306.43 212.431C306.5 213.261 307.11 214.711 307.78 215.671C308.63 216.881 311.73 217.821 318 218.781C322.95 219.541 328.12 220.721 329.5 221.411C331.07 222.201 333.49 222.411 336 222.001C338.94 221.501 341.46 221.891 345.5 223.461C349.9 225.171 352.1 225.461 356.5 224.901C359.52 224.521 363.12 223.731 364.5 223.151C365.87 222.571 369.7 221.791 373 221.401C376.3 221.021 380.46 220.081 382.25 219.321C385.14 218.081 386.01 218.141 390.25 219.871C392.86 220.941 396.57 221.781 398.5 221.741C400.43 221.701 403.12 221.341 404.5 220.931C406.46 220.361 407.76 220.851 410.5 223.181C412.43 224.821 416.36 227.351 419.25 228.801C422.14 230.251 426.41 231.731 428.75 232.111C431.95 232.611 433.74 232.341 436 231.001C438.84 229.311 439.51 229.301 448.25 230.821C453.34 231.711 457.84 232.231 458.25 231.981C458.66 231.741 460.24 232.191 461.75 232.981C464.23 234.291 464.77 234.241 467.25 232.521C468.76 231.471 471.35 230.091 473 229.461C475.98 228.321 475.99 228.271 475.3 222.621C474.92 219.491 474.33 216.261 474 215.431C473.67 214.601 471.99 213.031 470.27 211.931C467.25 210.001 467.13 209.661 466.95 202.431C466.85 198.311 466.48 194.141 466.14 193.181C465.76 192.151 464.47 191.431 463 191.431C461.07 191.431 460.38 190.801 459.96 188.681L459.43 185.931C453.07 192.401 452.46 192.661 452.02 191.181C451.73 190.221 452.51 188.091 453.75 186.451C455.22 184.501 456.35 183.811 457 184.441C457.55 184.981 458.23 185.211 458.5 184.971C458.77 184.721 458.45 180.791 457.77 176.231C457.09 171.661 456.64 166.051 456.77 163.751C456.94 160.741 456.37 158.721 454.75 156.501C453.51 154.811 452.22 151.521 451.88 149.181C451.54 146.841 450.59 143.811 449.78 142.431C448.96 141.061 448.55 139.031 448.88 137.931C449.21 136.821 448.59 134.161 447.48 131.931C446.38 129.731 445.49 126.021 445.49 123.681C445.5 121.341 444.55 115.491 443.39 110.681C442.23 105.871 440.42 100.811 439.36 99.4314C438.22 97.9514 437.44 95.4014 437.47 93.1814C437.49 90.7314 436.3 87.2614 434.06 83.1814C432.17 79.7414 429.45 75.8114 428.03 74.4314C426.61 73.0614 425.47 71.0314 425.49 69.9314C425.52 68.8314 424.84 65.9114 423.98 63.4314C423.12 60.9514 420.97 57.4614 419.21 55.6614C417.44 53.8614 415.44 52.4014 414.75 52.4114C414.06 52.4214 411.59 50.4614 409.25 48.0614C406.45 45.1714 403.47 43.2514 400.5 42.4014C398.02 41.7014 393.98 41.0314 391.5 40.9114C389.02 40.8014 383.63 39.7714 379.5 38.6314C375.38 37.5014 365.7 35.3514 358 33.8714L344 31.1814C326.52 38.3014 325.57 38.4814 318.5 37.8714C313.493 37.4381 310.327 37.6114 309 38.3914C307.44 39.3114 305.68 39.2214 301 38.0114C297.7 37.1614 291.06 36.4614 286.25 36.4514C281.44 36.4414 276.82 36.6614 276 36.9314C275.18 37.2014 274.5 38.3314 274.5 39.4314C274.5 40.5314 274.05 41.6614 273.5 41.9314C272.95 42.2014 270.59 41.2214 268.25 39.7414C264.85 37.5814 262.94 37.0814 258.75 37.2414C255.79 37.3514 253.5 36.9914 253.5 36.4314C253.5 35.8814 251.02 34.9814 248 34.4314C244.94 33.8714 241.61 32.5414 240.5 31.4314C239.4 30.3314 238.5 28.5314 238.5 27.4314C238.5 26.2414 237.38 24.8814 235.75 24.0714C234.24 23.3214 232.06 21.0914 230.91 19.1114C228.96 15.7714 228.5 15.5314 224.41 15.7214C221.98 15.8414 218.76 15.5914 217.25 15.1814C215.08 14.5914 213.92 14.9514 211.75 16.9014L209 19.3714C204.37 14.6414 203.41 14.3514 200 14.8514C197.26 15.2614 195.29 14.9814 193.75 13.9414C192.51 13.1114 190.15 9.95142 188.5 6.93142Z" fill="#1B2D3A" class="svg-elem-4"></path>
<path d="M225 221.431C222.39 226.661 218.76 235.431 216.92 240.931C216.449 242.347 215.979 243.815 215.533 245.253M337.839 116.771C331.774 119.871 323.145 124.617 317.75 127.821C311.84 131.341 303.4 136.791 299 139.931C294.6 143.081 286.75 149.091 281.56 153.291C276.38 157.491 267.87 165.201 262.66 170.431C257.45 175.661 249.94 183.981 245.96 188.931C241.99 193.881 236.72 201.081 234.24 204.931C231.77 208.781 227.61 216.201 225 221.431M225 221.431C222.39 226.661 218.75 235.431 216.91 240.931C216.438 242.333 215.972 243.802 215.533 245.253M317.75 127.821C323.083 124.654 331.666 119.939 337.839 116.771M337.839 116.771C338.507 116.428 339.146 116.104 339.75 115.801C341.684 114.833 344.036 113.713 346.556 112.552M339.75 115.801C341.665 114.842 343.989 113.735 346.48 112.586M212.593 257.429C212.741 256.836 212.859 256.178 212.96 255.431C213.206 253.584 214.251 249.493 215.533 245.253M212.593 257.429C212.592 256.716 212.693 255.918 212.87 254.931C213.167 253.298 214.247 249.402 215.533 245.253M212.593 257.429C212.039 259.649 211.06 260.969 208.93 262.681C207.04 264.191 203.59 266.111 201.25 266.951C198.91 267.791 196.77 268.471 196.5 268.461C196.23 268.451 196.38 264.511 196.83 259.691C197.29 254.871 198.7 246.881 199.97 241.931C201.23 236.981 203.67 229.331 205.39 224.931C207.1 220.531 210.41 213.451 212.75 209.191C215.09 204.931 219.93 197.311 223.5 192.251C227.07 187.201 234.73 178.131 240.5 172.111C246.27 166.081 255.5 157.541 261 153.111C266.5 148.691 276.4 141.521 283 137.161C289.6 132.811 302.2 125.691 311 121.341C319.8 116.981 332.18 111.471 338.5 109.101C344.82 106.721 354.73 103.341 360.5 101.591C366.27 99.8414 377.98 96.8714 386.5 95.0014C395.02 93.1314 403.35 91.5814 405 91.5614C406.65 91.5414 403.05 92.8114 397 94.3914C394.791 94.9647 392.279 95.6514 389.779 96.3589M212.593 257.429C212.596 259.175 213.212 260.417 214.83 262.681C217.1 265.871 217.83 266.301 219.75 265.551C221.08 265.031 224.25 265.071 227.5 265.651C230.52 266.191 234.01 266.811 235.25 267.031C236.56 267.261 238.18 268.791 239.12 270.681C240.01 272.471 241.61 274.831 242.69 275.931C244.62 277.921 244.61 277.981 241.68 284.931C239.94 289.051 238.99 292.711 239.37 293.831C239.71 294.871 241.24 296.551 242.75 297.581C244.26 298.601 245.84 299.421 246.25 299.421C246.66 299.411 249.13 297.271 251.74 294.671C256.42 290.001 256.53 289.951 259.99 291.181C263.24 292.341 263.68 292.251 266 289.931C267.37 288.561 270.08 284.171 272.01 280.181C273.93 276.191 275.51 272.371 275.51 271.681C275.5 270.991 274.63 268.971 273.57 267.181C272.51 265.391 271.2 261.451 270.66 258.431C269.9 254.171 270 252.201 271.09 249.681C271.87 247.891 272.95 246.201 273.5 245.931C274.05 245.661 276.07 246.331 278 247.431C279.93 248.531 281.95 249.431 282.5 249.431C283.05 249.431 283.68 248.871 283.89 248.181C284.11 247.491 283.19 244.231 281.85 240.931C280.51 237.631 278.27 233.811 276.87 232.431C274.49 230.091 274.37 229.521 275.01 223.431C275.39 219.851 276.1 215.921 276.6 214.681C277.14 213.321 278.76 212.131 280.67 211.681C282.55 211.241 285.29 209.231 287.42 206.761C290.8 202.831 291.35 202.571 297.1 202.261C301.46 202.021 303.69 202.361 304.93 203.431C305.97 204.331 306.59 206.141 306.48 207.931C306.38 209.581 306.36 211.601 306.43 212.431C306.5 213.261 307.11 214.711 307.78 215.671C308.63 216.881 311.73 217.821 318 218.781C322.95 219.541 328.12 220.721 329.5 221.411C331.07 222.201 333.49 222.411 336 222.001C338.94 221.501 341.46 221.891 345.5 223.461C349.9 225.171 352.1 225.461 356.5 224.901C359.52 224.521 363.12 223.731 364.5 223.151C365.87 222.571 369.7 221.791 373 221.401C376.3 221.021 380.46 220.081 382.25 219.321C385.14 218.081 386.01 218.141 390.25 219.871C392.86 220.941 396.57 221.781 398.5 221.741C400.43 221.701 403.12 221.341 404.5 220.931C406.46 220.361 407.76 220.851 410.5 223.181C412.43 224.821 416.36 227.351 419.25 228.801C422.14 230.251 426.41 231.731 428.75 232.111C431.95 232.611 433.74 232.341 436 231.001C438.84 229.311 439.51 229.301 448.25 230.821C453.34 231.711 457.84 232.231 458.25 231.981C458.66 231.741 460.24 232.191 461.75 232.981C464.23 234.291 464.77 234.241 467.25 232.521C468.76 231.471 471.35 230.091 473 229.461C475.98 228.321 475.99 228.271 475.3 222.621C474.92 219.491 474.33 216.261 474 215.431C473.67 214.601 471.99 213.031 470.27 211.931C467.25 210.001 467.13 209.661 466.95 202.431C466.85 198.311 466.48 194.141 466.14 193.181C465.76 192.151 464.47 191.431 463 191.431C461.07 191.431 460.38 190.801 459.96 188.681L459.43 185.931C453.07 192.401 452.46 192.661 452.02 191.181C451.73 190.221 452.51 188.091 453.75 186.451C455.22 184.501 456.35 183.811 457 184.441C457.55 184.981 458.23 185.211 458.5 184.971C458.77 184.721 458.45 180.791 457.77 176.231C457.09 171.661 456.64 166.051 456.77 163.751C456.94 160.741 456.37 158.721 454.75 156.501C453.51 154.811 452.22 151.521 451.88 149.181C451.54 146.841 450.59 143.811 449.78 142.431C448.96 141.061 448.55 139.031 448.88 137.931C449.21 136.821 448.59 134.161 447.48 131.931C446.38 129.731 445.49 126.021 445.49 123.681C445.5 121.341 444.55 115.491 443.39 110.681C442.23 105.871 440.42 100.811 439.36 99.4314C438.22 97.9514 437.44 95.4014 437.47 93.1814C437.49 90.7314 436.3 87.2614 434.06 83.1814C432.17 79.7414 429.45 75.8114 428.03 74.4314C426.61 73.0614 425.47 71.0314 425.49 69.9314C425.52 68.8314 424.84 65.9114 423.98 63.4314C423.12 60.9514 420.97 57.4614 419.21 55.6614C417.44 53.8614 415.44 52.4014 414.75 52.4114C414.06 52.4214 411.59 50.4614 409.25 48.0614C406.45 45.1714 403.47 43.2514 400.5 42.4014C398.02 41.7014 393.98 41.0314 391.5 40.9114C389.02 40.8014 383.63 39.7714 379.5 38.6314C375.38 37.5014 365.7 35.3514 358 33.8714L344 31.1814C326.52 38.3014 325.57 38.4814 318.5 37.8714C313.493 37.4381 310.327 37.6114 309 38.3914C307.44 39.3114 305.68 39.2214 301 38.0114C297.7 37.1614 291.06 36.4614 286.25 36.4514C281.44 36.4414 276.82 36.6614 276 36.9314C275.18 37.2014 274.5 38.3314 274.5 39.4314C274.5 40.5314 274.05 41.6614 273.5 41.9314C272.95 42.2014 270.59 41.2214 268.25 39.7414C264.85 37.5814 262.94 37.0814 258.75 37.2414C255.79 37.3514 253.5 36.9914 253.5 36.4314C253.5 35.8814 251.02 34.9814 248 34.4314C244.94 33.8714 241.61 32.5414 240.5 31.4314C239.4 30.3314 238.5 28.5314 238.5 27.4314C238.5 26.2414 237.38 24.8814 235.75 24.0714C234.24 23.3214 232.06 21.0914 230.91 19.1114C228.96 15.7714 228.5 15.5314 224.41 15.7214C221.98 15.8414 218.76 15.5914 217.25 15.1814C215.08 14.5914 213.92 14.9514 211.75 16.9014L209 19.3714C204.37 14.6414 203.41 14.3514 200 14.8514C197.26 15.2614 195.29 14.9814 193.75 13.9414C192.51 13.1114 190.15 9.95142 188.5 6.93142C186.2 2.71142 184.98 1.45142 183.25 1.50142C182.01 1.54142 178.75 2.38142 176 3.35142C173.25 4.33142 169.65 5.83142 168 6.68142C166.35 7.53142 164.1 9.16142 163 10.3014C161.4 11.9714 160.6 12.1714 159 11.3214C157.47 10.5014 155.34 10.7714 150 12.4414C146.15 13.6514 141.88 15.2114 140.5 15.9114C139.13 16.6114 136.88 18.8114 135.5 20.8014C134.13 22.7914 131.2 25.7514 129 27.3914C126.22 29.4514 124.59 31.6614 123.66 34.6414C122.92 37.0014 117.14 49.7314 110.8 62.9314L99.29 86.9314C84.05 101.691 80.44 106.011 79.96 107.931C79.55 109.581 78.32 112.731 77.23 114.931L75.25 118.931C78.61 121.251 79.58 122.831 79.56 123.931C79.54 125.061 77.55 127.571 75.01 129.681C72.53 131.741 70.23 134.441 69.9 135.681C69.57 136.921 69.83 139.061 70.48 140.431C71.61 142.811 71.16 143.401 61.04 152.931C52.08 161.371 50.42 163.401 50.44 165.931C50.46 167.581 50.14 169.381 49.73 169.931C49.33 170.481 46.53 171.981 43.5 173.251C40.47 174.531 37.44 175.771 36.75 176.001C36.06 176.241 34.15 175.081 32.5 173.431C30.85 171.781 28.6 170.431 27.5 170.431C26.4 170.431 23.86 171.891 21.86 173.681C19.87 175.471 17.84 177.941 17.36 179.181C16.85 180.531 16.9 182.231 17.5 183.431C18.13 184.691 18.15 186.081 17.57 187.181C17.02 188.211 15.48 188.931 13.82 188.931C11.2 188.931 11 189.211 11 192.931C11 196.471 10.71 196.961 8.5 197.171C7.12 197.291 5.44 198.081 4.75 198.921C3.74 200.141 3.79 201.011 5 203.431C5.83 205.081 6.5 207.331 6.5 208.431C6.5 209.531 5.37 211.781 4 213.431C2.62 215.081 1.5 216.881 1.5 217.431C1.5 217.981 3.4 218.321 5.72 218.181C9.29 217.971 10.29 217.401 12.29 214.431C13.58 212.511 15.39 210.931 16.32 210.931C17.52 210.931 18 211.791 18 213.931C18.01 215.581 18.34 217.491 18.75 218.181C19.16 218.871 20.74 219.431 22.25 219.421C23.86 219.421 27.12 220.971 30.13 223.171C32.94 225.241 36.73 227.831 38.55 228.931C40.36 230.031 42.87 231.601 44.12 232.431C46.22 233.821 46.58 233.741 48.91 231.431L51.43 228.931C64.06 235.131 68.23 237.511 68.86 238.221C69.49 238.941 70.56 239.501 71.25 239.471C71.94 239.451 75.51 235.491 79.19 230.681C82.87 225.871 93.11 214.711 101.94 205.881C110.77 197.061 123.4 185.531 130 180.271C136.6 175.011 146.28 167.671 151.5 163.971C156.72 160.261 166.96 153.681 174.25 149.331C181.54 144.991 194.25 138.061 202.5 133.931C210.75 129.811 222.79 124.211 229.25 121.501C235.71 118.781 247.75 114.311 256 111.551C264.25 108.801 278.43 104.681 287.5 102.411C296.57 100.141 310.52 97.1714 318.5 95.8214C326.48 94.4714 340.43 92.5014 349.5 91.4414C358.57 90.3814 372.86 89.0514 381.25 88.4714C389.64 87.9014 403.81 87.4614 412.75 87.4914L429 87.5514C410.4 91.3614 398.916 93.9845 391.784 95.83C391.073 96.0139 390.406 96.1901 389.779 96.3589M337.839 116.771C338.418 116.475 338.973 116.194 339.5 115.931C341.526 114.92 343.946 113.763 346.48 112.586M346.48 112.586C346.505 112.575 346.531 112.563 346.556 112.552M346.48 112.586L346.556 112.552M346.556 112.552C351.569 110.226 357.018 107.83 360.75 106.341C366.39 104.091 374.38 101.121 378.5 99.7514C380.099 99.2211 382.325 98.5335 384.805 97.7987M346.556 112.552C352.101 109.997 358.463 107.245 363 105.471C369.183 103.045 378.658 99.7144 384.805 97.7987M389.779 96.3589C388.082 96.8389 386.392 97.3285 384.805 97.7987M389.779 96.3589C388.308 96.7549 387.06 97.1107 386 97.4314C385.618 97.5469 385.219 97.6696 384.805 97.7987M350.25 96.5214C350.39 96.4714 350.5 96.8814 350.5 97.4314C350.5 97.9814 348.36 98.9014 345.75 99.4814C343.14 100.051 340.21 100.731 339.25 100.981C338.29 101.231 337.41 101.011 337.3 100.501C337.19 99.9914 340.01 98.9014 343.55 98.0914C347.1 97.2714 350.11 96.5714 350.25 96.5214ZM323.75 102.511C324.16 102.471 324.51 102.991 324.52 103.681C324.53 104.371 321.16 106.061 317.03 107.431C311.16 109.381 309.24 109.671 308.26 108.731C307.27 107.791 308.71 107.011 315 105.061C319.4 103.711 323.34 102.561 323.75 102.511ZM284.25 116.501C285.49 116.461 286.51 116.771 286.53 117.181C286.54 117.591 282.15 120.101 276.78 122.751C271.4 125.401 266.14 127.421 265.08 127.251C264.03 127.071 263.02 126.481 262.84 125.931C262.65 125.381 266.89 123.051 272.25 120.751C277.61 118.441 283.01 116.531 284.25 116.501ZM245.5 133.481C245.77 133.491 247.02 134.051 248.28 134.721C250.43 135.861 249.86 136.361 238.03 143.681C225.67 151.331 225.45 151.411 219 148.661L225 144.861C228.3 142.781 234.15 139.361 238 137.261C241.85 135.171 245.22 133.471 245.5 133.481ZM205.3 158.401C205.68 158.391 207.5 158.951 212.67 160.931L205.33 166.831C201.3 170.071 195.97 174.731 193.5 177.171C189.44 181.181 188.65 181.551 185.5 181.011C183.57 180.671 181.32 179.951 180.5 179.391C179.24 178.541 179.48 177.981 182 175.851C183.65 174.461 189.41 169.971 194.8 165.871C200.19 161.781 204.91 158.421 205.3 158.401ZM167.46 191.771C168.85 192.051 171.24 192.771 175.5 194.431L167.5 203.931C163.1 209.161 158.26 215.251 156.75 217.471C155.24 219.691 153.32 221.501 152.5 221.491C151.67 221.471 149.42 220.971 147.5 220.361C145.57 219.751 143.44 219.071 142.75 218.841C141.95 218.581 143.22 216.201 146.25 212.281C148.86 208.901 154.13 202.781 157.96 198.691C163.85 192.391 165.3 191.331 167.46 191.771ZM132.9 234.451C134.06 234.461 136.8 234.991 139 235.631C141.2 236.271 143.11 236.931 143.25 237.111C143.39 237.291 141.98 240.471 140.13 244.181C138.28 247.891 135.24 254.881 133.38 259.701C131.19 265.401 129.47 268.461 128.5 268.441C127.67 268.421 124.18 267.851 120.73 267.171C117.29 266.491 114.48 265.591 114.48 265.181C114.49 264.771 116.12 261.171 118.11 257.181C120.09 253.191 123.77 246.441 126.27 242.181C129.65 236.401 131.34 234.431 132.9 234.451Z" stroke="black" stroke-width="3" class="svg-elem-5"></path>
</svg>
