<svg width="1367" height="298" viewBox="0 0 1367 298" fill="none" xmlns="http://www.w3.org/2000/svg">
<path d="M359 100.091C364.77 98.3414 376.48 95.3714 385 93.5014C393.52 91.6314 401.85 90.0814 403.5 90.0614C405.15 90.0414 401.55 91.3114 395.5 92.8914C389.45 94.4614 381.13 96.8814 377 98.2514C372.88 99.6214 364.89 102.591 359.25 104.841C353.61 107.091 344.05 111.411 338 114.431C331.95 117.451 322.16 122.811 316.25 126.321C310.34 129.841 301.9 135.291 297.5 138.431C293.1 141.581 285.25 147.591 280.06 151.791C274.88 155.991 266.37 163.701 261.16 168.931C255.95 174.161 248.44 182.481 244.46 187.431C240.49 192.381 235.22 199.581 232.74 203.431C230.27 207.281 226.11 214.701 223.5 219.931C220.89 225.161 217.25 233.931 215.41 239.431C213.56 244.931 211.79 251.451 211.46 253.931C210.98 257.471 210.13 259.011 207.43 261.181C205.54 262.691 202.09 264.611 199.75 265.451C197.41 266.291 195.27 266.971 195 266.961C194.73 266.951 194.88 263.011 195.33 258.191C195.79 253.371 197.2 245.381 198.47 240.431C199.73 235.481 202.17 227.831 203.89 223.431C205.6 219.031 208.91 211.951 211.25 207.691C213.59 203.431 218.43 195.811 222 190.751C225.57 185.701 233.23 176.631 239 170.611C244.77 164.581 254 156.041 259.5 151.611C265 147.191 274.9 140.021 281.5 135.661C288.1 131.311 300.7 124.191 309.5 119.841C318.3 115.481 330.68 109.971 337 107.601C343.32 105.221 353.23 101.841 359 100.091Z" fill="#E17B21"/>
<path d="M1243.26 133.521C1245 129.701 1246.39 128.201 1249.5 126.791C1251.7 125.791 1254.96 124.961 1256.75 124.951C1258.54 124.941 1261.46 125.541 1263.25 126.291C1265.04 127.041 1267.24 128.501 1268.14 129.541C1269.04 130.581 1275.28 145.381 1282 162.431C1288.72 179.481 1294.39 193.991 1294.61 194.681C1294.9 195.601 1293.14 195.931 1288 195.931C1283.45 195.931 1280.75 195.491 1280.29 194.681C1279.9 193.991 1274.77 181.061 1268.89 165.931C1262.79 150.231 1257.67 138.431 1256.95 138.431C1256.24 138.431 1250.8 150.831 1233 195.931H1226C1222 195.931 1219 195.501 1219 194.931C1219 194.381 1223.95 181.441 1230.01 166.181C1236.06 150.921 1242.02 136.221 1243.26 133.521Z" fill="#E17B21"/>
<path d="M978.5 127.431L982.5 126.801C984.7 126.451 997.75 126.231 1036.5 126.431V139.431L1014 139.931V195.931H1001V139.931L978.5 139.431V127.431Z" fill="#E17B21"/>
<path d="M828.83 133.601C828.74 130.661 829.04 127.961 829.5 127.601C829.96 127.231 840.05 126.941 851.92 126.951C870.71 126.971 874.02 127.211 877.5 128.811C879.7 129.821 882.26 131.501 883.19 132.541C884.12 133.581 885.58 136.121 886.44 138.181C887.3 140.241 888 144.631 888 147.931C888 151.231 887.39 155.391 886.64 157.181C885.89 158.971 883.98 161.721 882.39 163.301C880.8 164.871 878.37 166.651 877 167.231C875.63 167.821 867.3 168.561 842.5 169.431L841.5 195.431L829 195.931V178.931C829 162.231 829.04 161.891 831.45 159.431C833.88 156.951 834.08 156.931 851.2 156.931C866.1 156.921 868.92 156.671 871.5 155.121C873.37 153.991 874.78 152.111 875.25 150.121C875.66 148.361 875.55 145.811 875 144.431C874.45 143.061 872.99 141.251 871.75 140.421C869.93 139.201 865.64 138.921 829 138.931L828.83 133.601Z" fill="#E17B21"/>
<path d="M1048.18 176.431C1048.01 165.981 1048.17 150.571 1048.53 142.181L1049.2 126.931H1061.37L1061.75 142.181C1061.96 150.571 1061.99 165.981 1061.5 195.431H1048.5L1048.18 176.431Z" fill="#E17B21"/>
<path d="M1082.2 134.031C1084.01 132.161 1087.3 129.811 1089.5 128.801C1092.97 127.211 1096.34 126.971 1137 126.931V138.931H1117.75C1101.42 138.931 1097.96 139.201 1095 140.681C1092.99 141.681 1090.75 143.931 1089.75 145.931C1088.38 148.671 1088 152.001 1088 161.181C1088 169.411 1088.45 173.981 1089.5 176.431C1090.35 178.411 1092.3 180.581 1094 181.431C1096.22 182.541 1100.5 182.931 1110.5 182.931C1123 182.931 1124.07 182.781 1125 180.931C1125.55 179.831 1126 176.231 1126 166.931L1104.5 166.431L1104 154.931H1119.5C1134.46 154.931 1135.05 155.011 1136.5 157.181C1137.64 158.871 1138.01 162.401 1138.01 171.431C1138.01 181.891 1137.72 184.011 1135.76 187.931C1134.28 190.881 1132.29 193.031 1130 194.181C1127.12 195.611 1123.72 195.931 1111 195.951C1099.47 195.971 1094.34 195.571 1091 194.411C1088.52 193.551 1085.03 191.401 1083.24 189.641C1081.44 187.871 1079 184.181 1077.8 181.431C1076.08 177.461 1075.54 173.851 1075.17 163.931C1074.78 153.271 1075.02 150.401 1076.8 144.431C1078.22 139.701 1079.97 136.331 1082.2 134.031Z" fill="#E17B21"/>
<path d="M1151.26 155.131C1151.06 141.221 1151.14 129.181 1151.43 128.381C1151.8 127.331 1153.61 126.931 1164 126.931L1164.05 150.181C1164.09 165.441 1164.52 174.621 1165.3 176.901C1165.96 178.821 1167.62 180.941 1169 181.641C1170.54 182.421 1175.63 182.911 1182.32 182.921C1193.05 182.931 1193.18 182.901 1199 176.931L1198.98 155.181C1198.98 143.221 1199.32 131.941 1200.5 126.801L1212.5 127.431V153.431C1212.5 171.011 1212.11 180.561 1211.3 182.931C1210.64 184.851 1208.28 188.121 1206.05 190.181C1203.82 192.241 1200.31 194.381 1198.25 194.921C1196.18 195.471 1188.53 195.921 1181.25 195.921C1171.53 195.931 1167 195.521 1164.25 194.381C1162.18 193.521 1159.22 191.611 1157.66 190.131C1156.11 188.641 1154.11 185.851 1153.23 183.931C1151.92 181.081 1151.55 175.701 1151.26 155.131Z" fill="#E17B21"/>
<path d="M1305 134.431C1305 131.951 1305.26 129.251 1305.58 128.431C1306.08 127.161 1309.6 126.931 1328.83 126.941C1350.29 126.961 1351.73 127.081 1355.94 129.191C1358.38 130.421 1361.44 133.001 1362.73 134.931C1364.33 137.311 1365.27 140.511 1365.68 144.931C1366.07 149.191 1365.81 152.811 1364.94 155.431C1364.21 157.631 1362.42 160.781 1360.96 162.431C1359.5 164.081 1356.86 166.111 1355.1 166.931C1353.33 167.751 1352.08 168.881 1352.31 169.431C1352.54 169.981 1355.94 175.721 1359.86 182.181C1363.79 188.641 1367 194.381 1367 194.931C1367 195.531 1364.13 195.831 1352.78 195.431L1337.5 168.851L1328.95 168.891C1323.47 168.911 1319.96 169.381 1319.18 170.181C1318.36 171.031 1317.97 175.391 1318 195.931H1305V179.931C1305 167.711 1305.35 163.221 1306.5 160.931C1307.32 159.281 1309.01 157.711 1310.25 157.441C1311.48 157.171 1320.75 156.841 1330.84 156.691C1349.07 156.431 1349.19 156.421 1351.13 153.931C1352.22 152.541 1353.08 149.881 1353.08 147.931C1353.08 145.981 1352.22 143.321 1349.18 139.431L1305 138.931V134.431Z" fill="#E17B21"/>
<path fill-rule="evenodd" clip-rule="evenodd" d="M187 5.43142C184.7 1.21142 183.48 -0.04858 181.75 0.00142003C180.51 0.04142 177.25 0.88142 174.5 1.85142C171.75 2.83142 168.15 4.33142 166.5 5.18142C164.85 6.03142 162.6 7.66142 161.5 8.80142C159.9 10.4714 159.1 10.6714 157.5 9.82142C155.97 9.00142 153.84 9.27142 148.5 10.9414C144.65 12.1514 140.38 13.7114 139 14.4114C137.63 15.1114 135.38 17.3114 134 19.3014C132.63 21.2914 129.7 24.2514 127.5 25.8914C124.72 27.9514 123.09 30.1614 122.16 33.1414C121.42 35.5014 115.64 48.2314 109.3 61.4314L97.79 85.4314C82.55 100.191 78.94 104.511 78.46 106.431C78.05 108.081 76.82 111.231 75.73 113.431L73.75 117.431C77.11 119.751 78.08 121.331 78.06 122.431C78.04 123.561 76.05 126.071 73.51 128.181C71.03 130.241 68.73 132.941 68.4 134.181C68.07 135.421 68.33 137.561 68.98 138.931C70.11 141.311 69.66 141.901 59.54 151.431C50.58 159.871 48.92 161.901 48.94 164.431C48.96 166.081 48.64 167.881 48.23 168.431C47.83 168.981 45.03 170.481 42 171.751C38.97 173.031 35.94 174.271 35.25 174.501C34.56 174.741 32.65 173.581 31 171.931C29.35 170.281 27.1 168.931 26 168.931C24.9 168.931 22.36 170.391 20.36 172.181C18.37 173.971 16.34 176.441 15.86 177.681C15.35 179.031 15.4 180.731 16 181.931C16.63 183.191 16.65 184.581 16.07 185.681C15.52 186.711 13.98 187.431 12.32 187.431C9.7 187.431 9.5 187.711 9.5 191.431C9.5 194.971 9.21 195.461 7 195.671C5.62 195.791 3.94 196.581 3.25 197.421C2.24 198.641 2.29 199.511 3.5 201.931C4.33 203.581 5 205.831 5 206.931C5 208.031 3.87 210.281 2.5 211.931C1.12 213.581 0 215.381 0 215.931C0 216.481 1.9 216.821 4.22 216.681C7.79 216.471 8.79 215.901 10.79 212.931C12.08 211.011 13.89 209.431 14.82 209.431C16.02 209.431 16.5 210.291 16.5 212.431C16.51 214.081 16.84 215.991 17.25 216.681C17.66 217.371 19.24 217.931 20.75 217.921C22.36 217.921 25.62 219.471 28.63 221.671C31.44 223.741 35.23 226.331 37.05 227.431C38.86 228.531 41.37 230.101 42.62 230.931C44.72 232.321 45.08 232.241 47.41 229.931L49.93 227.431C62.56 233.631 66.73 236.011 67.36 236.721C67.99 237.441 69.06 238.001 69.75 237.971C70.44 237.951 74.01 233.991 77.69 229.181C81.37 224.371 91.61 213.211 100.44 204.381C109.27 195.561 121.9 184.031 128.5 178.771C135.1 173.511 144.78 166.171 150 162.471C155.22 158.761 165.46 152.181 172.75 147.831C180.04 143.491 192.75 136.561 201 132.431C209.25 128.311 221.29 122.711 227.75 120.001C234.21 117.281 246.25 112.811 254.5 110.051C262.75 107.301 276.93 103.181 286 100.911C295.07 98.6414 309.02 95.6714 317 94.3214C324.98 92.9714 338.93 91.0014 348 89.9414C357.07 88.8814 371.36 87.5514 379.75 86.9714C388.14 86.4014 402.31 85.9614 411.25 85.9914L427.5 86.0514C402.7 91.1314 390.55 94.1014 384.5 95.9314C378.45 97.7614 368.1 101.381 361.5 103.971C354.9 106.551 344.44 111.201 338.25 114.301C332.06 117.401 322.16 122.811 316.25 126.321C310.34 129.841 301.9 135.291 297.5 138.431C293.1 141.581 285.25 147.591 280.06 151.791C274.88 155.991 266.37 163.701 261.16 168.931C255.95 174.161 248.44 182.481 244.46 187.431C240.49 192.381 235.22 199.581 232.74 203.431C230.27 207.281 226.11 214.701 223.5 219.931C220.89 225.161 217.26 233.931 215.42 239.431C213.59 244.931 211.77 251.231 211.37 253.431C210.76 256.831 211.05 257.991 213.33 261.181C215.6 264.371 216.33 264.801 218.25 264.051C219.58 263.531 222.75 263.571 226 264.151C229.02 264.691 232.51 265.311 233.75 265.531C235.06 265.761 236.68 267.291 237.62 269.181C238.51 270.971 240.11 273.331 241.19 274.431C243.12 276.421 243.11 276.481 240.18 283.431C238.44 287.551 237.49 291.211 237.87 292.331C238.21 293.371 239.74 295.051 241.25 296.081C242.76 297.101 244.34 297.921 244.75 297.921C245.16 297.911 247.63 295.771 250.24 293.171C254.92 288.501 255.03 288.451 258.49 289.681C261.74 290.841 262.18 290.751 264.5 288.431C265.87 287.061 268.58 282.671 270.51 278.681C272.43 274.691 274.01 270.871 274.01 270.181C274 269.491 273.13 267.471 272.07 265.681C271.01 263.891 269.7 259.951 269.16 256.931C268.4 252.671 268.5 250.701 269.59 248.181C270.37 246.391 271.45 244.701 272 244.431C272.55 244.161 274.57 244.831 276.5 245.931C278.43 247.031 280.45 247.931 281 247.931C281.55 247.931 282.18 247.371 282.39 246.681C282.61 245.991 281.69 242.731 280.35 239.431C279.01 236.131 276.77 232.311 275.37 230.931C272.99 228.591 272.87 228.021 273.51 221.931C273.89 218.351 274.6 214.421 275.1 213.181C275.64 211.821 277.26 210.631 279.17 210.181C281.05 209.741 283.79 207.731 285.92 205.261C289.3 201.331 289.85 201.071 295.6 200.761C299.96 200.521 302.19 200.861 303.43 201.931C304.47 202.831 305.09 204.641 304.98 206.431C304.88 208.081 304.86 210.101 304.93 210.931C305 211.761 305.61 213.211 306.28 214.171C307.13 215.381 310.23 216.321 316.5 217.281C321.45 218.041 326.62 219.221 328 219.911C329.57 220.701 331.99 220.911 334.5 220.501C337.44 220.001 339.96 220.391 344 221.961C348.4 223.671 350.6 223.961 355 223.401C358.02 223.021 361.62 222.231 363 221.651C364.37 221.071 368.2 220.291 371.5 219.901C374.8 219.521 378.96 218.581 380.75 217.821C383.64 216.581 384.51 216.641 388.75 218.371C391.36 219.441 395.07 220.281 397 220.241C398.93 220.201 401.62 219.841 403 219.431C404.96 218.861 406.26 219.351 409 221.681C410.93 223.321 414.86 225.851 417.75 227.301C420.64 228.751 424.91 230.231 427.25 230.611C430.45 231.111 432.24 230.841 434.5 229.501C437.34 227.811 438.01 227.801 446.75 229.321C451.84 230.211 456.34 230.731 456.75 230.481C457.16 230.241 458.74 230.691 460.25 231.481C462.73 232.791 463.27 232.741 465.75 231.021C467.26 229.971 469.85 228.591 471.5 227.961C474.48 226.821 474.49 226.771 473.8 221.121C473.42 217.991 472.83 214.761 472.5 213.931C472.17 213.101 470.49 211.531 468.77 210.431C465.75 208.501 465.63 208.161 465.45 200.931C465.35 196.811 464.98 192.641 464.64 191.681C464.26 190.651 462.97 189.931 461.5 189.931C459.57 189.931 458.88 189.301 458.46 187.181L457.93 184.431C451.57 190.901 450.96 191.161 450.52 189.681C450.23 188.721 451.01 186.591 452.25 184.951C453.72 183.001 454.85 182.311 455.5 182.941C456.05 183.481 456.73 183.711 457 183.471C457.27 183.221 456.95 179.291 456.27 174.731C455.59 170.161 455.14 164.551 455.27 162.251C455.44 159.241 454.87 157.221 453.25 155.001C452.01 153.311 450.72 150.021 450.38 147.681C450.04 145.341 449.09 142.311 448.28 140.931C447.46 139.561 447.05 137.531 447.38 136.431C447.71 135.321 447.09 132.661 445.98 130.431C444.88 128.231 443.99 124.521 443.99 122.181C444 119.841 443.05 113.991 441.89 109.181C440.73 104.371 438.92 99.3114 437.86 97.9314C436.72 96.4514 435.94 93.9014 435.97 91.6814C435.99 89.2314 434.8 85.7614 432.56 81.6814C430.67 78.2414 427.95 74.3114 426.53 72.9314C425.11 71.5614 423.97 69.5314 423.99 68.4314C424.02 67.3314 423.34 64.4114 422.48 61.9314C421.62 59.4514 419.47 55.9614 417.71 54.1614C415.94 52.3614 413.94 50.9014 413.25 50.9114C412.56 50.9214 410.09 48.9614 407.75 46.5614C404.95 43.6714 401.97 41.7514 399 40.9014C396.52 40.2014 392.48 39.5314 390 39.4114C387.52 39.3014 382.13 38.2714 378 37.1314C373.88 36.0014 364.2 33.8514 356.5 32.3714L342.5 29.6814C325.02 36.8014 324.07 36.9814 317 36.3714C311.993 35.9381 308.827 36.1114 307.5 36.8914C305.94 37.8114 304.18 37.7214 299.5 36.5114C296.2 35.6614 289.56 34.9614 284.75 34.9514C279.94 34.9414 275.32 35.1614 274.5 35.4314C273.68 35.7014 273 36.8314 273 37.9314C273 39.0314 272.55 40.1614 272 40.4314C271.45 40.7014 269.09 39.7214 266.75 38.2414C263.35 36.0814 261.44 35.5814 257.25 35.7414C254.29 35.8514 252 35.4914 252 34.9314C252 34.3814 249.52 33.4814 246.5 32.9314C243.44 32.3714 240.11 31.0414 239 29.9314C237.9 28.8314 237 27.0314 237 25.9314C237 24.7414 235.88 23.3814 234.25 22.5714C232.74 21.8214 230.56 19.5914 229.41 17.6114C227.46 14.2714 227 14.0314 222.91 14.2214C220.48 14.3414 217.26 14.0914 215.75 13.6814C213.58 13.0914 212.42 13.4514 210.25 15.4014L207.5 17.8714C202.87 13.1414 201.91 12.8514 198.5 13.3514C195.76 13.7614 193.79 13.4814 192.25 12.4414C191.01 11.6114 188.65 8.45142 187 5.43142ZM349 95.9314C349 95.3814 348.89 94.9714 348.75 95.0214C348.61 95.0714 345.6 95.7714 342.05 96.5914C338.51 97.4014 335.69 98.4914 335.8 99.0014C335.91 99.5114 336.79 99.7314 337.75 99.4814C338.71 99.2314 341.64 98.5514 344.25 97.9814C346.86 97.4014 349 96.4814 349 95.9314ZM323.02 102.181C323.01 101.491 322.66 100.971 322.25 101.011C321.84 101.061 317.9 102.211 313.5 103.561C307.21 105.511 305.77 106.291 306.76 107.231C307.74 108.171 309.66 107.881 315.53 105.931C319.66 104.561 323.03 102.871 323.02 102.181ZM285.03 115.681C285.01 115.271 283.99 114.961 282.75 115.001C281.51 115.031 276.11 116.941 270.75 119.251C265.39 121.551 261.15 123.881 261.34 124.431C261.52 124.981 262.53 125.571 263.58 125.751C264.64 125.921 269.9 123.901 275.28 121.251C280.65 118.601 285.04 116.091 285.03 115.681ZM786.47 129.431C779.52 125.931 776.15 124.961 774.5 125.011C772.85 125.071 769.96 125.511 768.08 126.001C766.2 126.491 763.91 127.911 762.99 129.161C762.07 130.411 755.62 145.721 748.66 163.181C741.7 180.641 736 195.161 736 195.431C736 195.701 739.24 195.821 743.2 195.681L750.4 195.431C767.53 152.521 773.03 139.471 773.67 138.751C774.61 137.681 775.02 137.811 775.82 139.431C776.36 140.531 781.39 153.131 787 167.431C792.62 181.731 797.39 193.991 797.6 194.681C797.87 195.521 800.28 195.931 805 195.931C809.97 195.931 811.98 195.571 811.94 194.681C811.9 193.991 806.16 179.031 799.17 161.431L786.47 129.431ZM570.5 128.781C567.03 127.221 563.54 126.971 544.33 126.951C525.55 126.931 522.08 127.161 521.58 128.431C521.26 129.251 521 131.951 521 134.431V138.931C557.72 138.931 562.63 139.241 565 140.431C567.29 141.581 568.14 142.811 568.59 145.681C568.92 147.741 568.7 150.561 568.11 151.931C567.52 153.311 565.9 154.991 564.52 155.681C562.79 156.541 556.49 156.931 544.5 156.931C534.87 156.931 526.26 157.271 525.36 157.681C524.46 158.091 523.11 159.671 522.36 161.181C521.38 163.151 521 168.461 521 179.931V195.931H534C533.97 175.391 534.36 171.031 535.18 170.181C535.97 169.371 539.4 168.941 544.95 168.951L553.5 168.961L568.53 195.431C579.74 195.821 583 195.701 583 195.431C583 195.161 579.62 189.311 575.5 182.431C571.37 175.561 568.02 169.591 568.05 169.181C568.08 168.771 570.19 167.081 572.74 165.431C575.28 163.781 578.18 160.861 579.18 158.931C580.18 157.011 581.27 153.181 581.6 150.431C581.94 147.681 581.72 143.521 581.11 141.181C580.5 138.841 578.76 135.501 577.25 133.761C575.74 132.011 572.7 129.771 570.5 128.781ZM648.75 129.691C644.95 127.691 642.86 127.431 629 127.241C620.48 127.121 612.29 127.381 610.81 127.821C609.32 128.261 606.85 129.311 605.31 130.151C603.76 130.991 601.04 133.311 599.25 135.301C597.38 137.391 595.28 141.371 594.32 144.681C593.21 148.461 592.63 154.031 592.63 160.931C592.63 167.711 593.21 173.381 594.26 176.931C595.16 179.951 596.95 184.011 598.24 185.931C599.53 187.851 602.15 190.461 604.05 191.721C605.95 192.981 609.08 194.441 611 194.971C612.92 195.491 620.58 195.931 628 195.951C637.78 195.961 642.74 195.541 646 194.401C648.48 193.531 651.96 191.721 653.75 190.371C655.54 189.031 658.24 185.341 659.75 182.181C662.37 176.691 662.5 175.741 662.49 161.431C662.48 147.931 662.26 145.981 660.25 141.931C659.02 139.451 656.89 136.191 655.51 134.681C654.13 133.171 651.09 130.921 648.75 129.691ZM732 126.931H672.9L673.5 139.431L696 139.931V195.931H709V139.931L731.5 139.431L732 126.931ZM246.78 133.221C245.52 132.551 244.27 131.991 244 131.981C243.72 131.971 240.35 133.671 236.5 135.761C232.65 137.861 226.8 141.281 223.5 143.361L217.5 147.161C223.95 149.911 224.17 149.831 236.53 142.181C248.36 134.861 248.93 134.361 246.78 133.221ZM211.17 159.431C206 157.451 204.18 156.891 203.8 156.901C203.41 156.921 198.69 160.281 193.3 164.371C187.91 168.471 182.15 172.961 180.5 174.351C177.98 176.481 177.74 177.041 179 177.891C179.82 178.451 182.07 179.171 184 179.511C187.15 180.051 187.94 179.681 192 175.671C194.47 173.231 199.8 168.571 203.83 165.331L211.17 159.431ZM174 192.931C169.74 191.271 167.35 190.551 165.96 190.271C163.8 189.831 162.35 190.891 156.46 197.191C152.63 201.281 147.36 207.401 144.75 210.781C141.72 214.701 140.45 217.081 141.25 217.341C141.94 217.571 144.07 218.251 146 218.861C147.92 219.471 150.17 219.971 151 219.991C151.82 220.001 153.74 218.191 155.25 215.971C156.76 213.751 161.6 207.661 166 202.431L174 192.931ZM137.5 234.131C135.3 233.491 132.56 232.961 131.4 232.951C129.84 232.931 128.15 234.901 124.77 240.681C122.27 244.941 118.59 251.691 116.61 255.681C114.62 259.671 112.99 263.271 112.98 263.681C112.98 264.091 115.79 264.991 119.23 265.671C122.68 266.351 126.17 266.921 127 266.941C127.97 266.961 129.69 263.901 131.88 258.201C133.74 253.381 136.78 246.391 138.63 242.681C140.48 238.971 141.89 235.791 141.75 235.611C141.61 235.431 139.7 234.771 137.5 234.131ZM610.97 142.431C612.69 140.901 615.24 140.281 621.86 139.801C626.61 139.461 632.52 139.381 635 139.641C637.48 139.891 641.05 140.851 642.93 141.771C645.19 142.861 646.98 144.801 648.16 147.431C649.5 150.401 649.96 154.001 649.98 161.431C649.99 168.991 649.57 172.281 648.25 174.911C647.29 176.821 644.92 179.421 643 180.691C639.85 182.751 638.34 182.981 628 182.961C619.1 182.931 615.71 182.531 613 181.181C611 180.181 608.75 177.931 607.75 175.931C606.41 173.251 606 169.911 606 161.681C606 154.861 606.5 149.741 607.36 147.681C608.11 145.891 609.73 143.531 610.97 142.431Z" fill="#1B2D3A"/>
<path fill-rule="evenodd" clip-rule="evenodd" d="M923.5 126.881C919.65 127.311 914.92 128.351 913 129.201C911.08 130.051 908.26 131.911 906.75 133.341C905.24 134.761 902.8 138.521 901.33 141.681C899.21 146.241 898.55 149.401 898.18 156.931C897.9 162.511 898.22 169.111 898.95 172.931C899.64 176.511 901 181.011 901.97 182.931C902.95 184.851 905.38 187.891 907.37 189.681C909.37 191.471 913.36 193.611 916.25 194.441C919.71 195.441 925.84 195.951 934.25 195.941C944.46 195.931 948.04 195.541 952.25 193.961C955.14 192.881 958.91 190.521 960.64 188.711C962.36 186.911 964.46 184.081 965.29 182.431C966.12 180.781 967.36 176.511 968.05 172.931C968.84 168.881 969.09 163.041 968.72 157.431C968.39 152.481 967.43 146.411 966.58 143.931C965.73 141.451 963.45 137.521 961.52 135.181C959.02 132.161 956.41 130.351 952.5 128.931C949.34 127.781 943.49 126.751 938.75 126.511C934.21 126.281 927.35 126.451 923.5 126.881ZM916.75 142.211C918.26 141.261 920.85 140.161 922.5 139.751C924.15 139.341 929.77 139.151 935 139.311C941.12 139.501 945.57 140.161 947.5 141.171C949.15 142.021 951.25 143.561 952.17 144.581C953.1 145.601 954.4 148.681 955.08 151.431C955.79 154.341 956.11 159.771 955.83 164.431C955.51 169.781 954.7 173.591 953.39 175.931C952.31 177.851 949.87 180.221 947.97 181.181C945.28 182.531 941.97 182.931 933.25 182.931C925.43 182.931 921.01 182.481 918.75 181.451C916.96 180.631 914.61 178.491 913.53 176.701C911.98 174.141 911.48 171.151 911.19 162.931C910.92 155.081 911.23 151.361 912.42 148.181C913.31 145.771 915.19 143.181 916.75 142.211Z" fill="#E17B21"/>
</svg>
