<svg width="1071" height="863" viewBox="0 0 1071 863" fill="none" xmlns="http://www.w3.org/2000/svg">
<g clip-path="url(#clip0_7_2)">
<path d="M888.282 460.98C812.487 404.317 693.774 350.734 562.582 313.958C443.131 280.478 326.624 264.313 234.495 268.441L234.015 257.727C327.242 253.552 444.959 269.853 565.472 303.627C697.887 340.741 817.887 394.962 894.699 452.381L888.282 460.98Z" fill="#984700"/>
<path d="M880.412 504.625C880.479 554.826 869.955 604.477 849.526 650.334C847.821 654.173 846.045 657.976 844.196 661.745C808.664 734.523 749.521 793.114 676.413 827.961C603.305 862.808 520.547 871.856 441.637 853.627C362.726 835.399 292.321 790.971 241.904 727.589C191.486 664.208 164.033 585.613 164.021 504.625C164.021 496.334 164.303 488.109 164.868 479.949C165.135 475.799 165.481 471.674 165.908 467.574C185.635 277.974 350.387 137.041 540.75 146.913C731.113 156.785 880.403 314.008 880.413 504.628L880.412 504.625Z" fill="#F2F2F2"/>
<path opacity="0.1" d="M849.528 650.337C847.824 654.176 846.047 657.979 844.198 661.748C833.731 662.881 822.714 663.707 811.146 664.225C801.569 664.654 791.712 664.868 781.646 664.868C693.684 664.868 587.823 648.631 479.678 618.322C359.153 584.544 250.114 537.292 172.645 485.268C170.006 483.498 167.414 481.725 164.87 479.949C165.137 475.799 165.483 471.674 165.91 467.574C170.017 470.502 174.254 473.433 178.619 476.367C255.18 527.767 363.119 574.517 482.571 607.999C589.771 638.049 694.636 654.146 781.589 654.146C791.53 654.146 801.222 653.935 810.663 653.513C824.412 652.89 837.367 651.832 849.528 650.337Z" fill="black"/>
<path d="M781.64 656.294C693.681 656.294 587.814 640.058 479.673 609.748C359.156 575.97 250.116 528.715 172.64 476.693C93.55 423.585 56.464 371.254 68.211 329.341C79.958 287.428 138.841 261.996 234.011 257.73L234.491 268.444C190.047 270.435 153.827 277.044 126.838 288.078C99.914 299.087 83.663 313.944 78.538 332.235C73.413 350.526 79.573 371.664 96.854 395.063C114.177 418.519 141.686 442.987 178.622 467.789C255.175 519.189 363.122 565.943 482.572 599.423C589.774 629.47 694.629 645.57 781.59 645.57C791.523 645.57 801.213 645.359 810.658 644.937C855.103 642.944 891.322 636.337 918.313 625.303C945.236 614.294 961.488 599.438 966.613 581.146C975.813 548.303 948 505.627 888.277 460.98L894.7 452.391C925.431 475.366 948.179 498.012 962.315 519.7C977.467 542.951 982.387 564.6 976.938 584.04C965.19 625.954 906.306 651.384 811.138 655.649C801.561 656.078 791.712 656.294 781.64 656.294Z" fill="#984700"/>
<path opacity="0.1" d="M296.364 474.524C312.988 474.524 326.464 461.048 326.464 444.424C326.464 427.8 312.988 414.324 296.364 414.324C279.74 414.324 266.264 427.8 266.264 444.424C266.264 461.048 279.74 474.524 296.364 474.524Z" fill="black"/>
<path opacity="0.1" d="M628.836 776.894C645.46 776.894 658.936 763.418 658.936 746.794C658.936 730.17 645.46 716.694 628.836 716.694C612.212 716.694 598.736 730.17 598.736 746.794C598.736 763.418 612.212 776.894 628.836 776.894Z" fill="black"/>
<path opacity="0.1" d="M527.586 521.042C544.21 521.042 557.686 507.566 557.686 490.942C557.686 474.318 544.21 460.842 527.586 460.842C510.962 460.842 497.486 474.318 497.486 490.942C497.486 507.566 510.962 521.042 527.586 521.042Z" fill="black"/>
<path opacity="0.1" d="M311.415 686.594C328.039 686.594 341.515 673.118 341.515 656.494C341.515 639.87 328.039 626.394 311.415 626.394C294.791 626.394 281.315 639.87 281.315 656.494C281.315 673.118 294.791 686.594 311.415 686.594Z" fill="black"/>
<path opacity="0.1" d="M689.032 359.596C705.656 359.596 719.132 346.12 719.132 329.496C719.132 312.872 705.656 299.396 689.032 299.396C672.408 299.396 658.932 312.872 658.932 329.496C658.932 346.12 672.408 359.596 689.032 359.596Z" fill="black"/>
<path opacity="0.1" d="M788.91 563.457C805.534 563.457 819.01 549.981 819.01 533.357C819.01 516.733 805.534 503.257 788.91 503.257C772.286 503.257 758.81 516.733 758.81 533.357C758.81 549.981 772.286 563.457 788.91 563.457Z" fill="black"/>
<path d="M630.006 659.031C651.92 659.031 669.684 641.266 669.684 619.353C669.684 597.439 651.92 579.675 630.006 579.675C608.092 579.675 590.328 597.439 590.328 619.353C590.328 641.266 608.092 659.031 630.006 659.031Z" fill="white"/>
<path d="M630.006 561.889C622.639 561.889 615.344 563.34 608.537 566.159C601.731 568.979 595.547 573.111 590.337 578.32C585.128 583.53 580.996 589.714 578.176 596.52C575.357 603.327 573.906 610.622 573.906 617.989C573.906 648.969 630.006 750.704 630.006 750.704C630.006 750.704 686.106 648.976 686.106 617.989C686.106 610.622 684.655 603.327 681.836 596.52C679.016 589.714 674.884 583.53 669.675 578.32C664.465 573.111 658.281 568.979 651.475 566.159C644.668 563.34 637.373 561.889 630.006 561.889ZM630.006 645.348C624.864 645.348 619.837 643.823 615.561 640.966C611.285 638.109 607.953 634.049 605.985 629.298C604.017 624.547 603.502 619.319 604.506 614.276C605.509 609.232 607.985 604.599 611.621 600.963C615.257 597.327 619.89 594.851 624.934 593.848C629.977 592.844 635.205 593.359 639.956 595.327C644.707 597.295 648.767 600.627 651.624 604.903C654.481 609.179 656.006 614.206 656.006 619.348C656.006 626.244 653.267 632.857 648.391 637.733C643.515 642.609 636.902 645.348 630.006 645.348Z" fill="#E17B21"/>
<path d="M296.21 350.925C318.124 350.925 335.888 333.161 335.888 311.247C335.888 289.334 318.124 271.569 296.21 271.569C274.296 271.569 256.532 289.334 256.532 311.247C256.532 333.161 274.296 350.925 296.21 350.925Z" fill="white"/>
<path d="M296.208 253.783C281.329 253.783 267.06 259.693 256.539 270.214C246.018 280.735 240.108 295.004 240.108 309.883C240.108 340.863 296.208 442.598 296.208 442.598C296.208 442.598 352.308 340.87 352.308 309.883C352.308 295.004 346.397 280.735 335.877 270.214C325.356 259.693 311.087 253.783 296.208 253.783ZM296.208 337.242C291.066 337.242 286.039 335.717 281.763 332.86C277.487 330.003 274.155 325.943 272.187 321.192C270.219 316.441 269.704 311.213 270.707 306.17C271.711 301.126 274.187 296.493 277.823 292.857C281.459 289.221 286.092 286.745 291.136 285.742C296.179 284.738 301.407 285.253 306.158 287.221C310.909 289.189 314.969 292.521 317.826 296.797C320.683 301.073 322.208 306.1 322.208 311.242C322.208 318.138 319.469 324.751 314.593 329.627C309.717 334.503 303.104 337.242 296.208 337.242Z" fill="#E17B21"/>
<path d="M793.968 442.405C815.882 442.405 833.646 424.641 833.646 402.727C833.646 380.814 815.882 363.049 793.968 363.049C772.054 363.049 754.29 380.814 754.29 402.727C754.29 424.641 772.054 442.405 793.968 442.405Z" fill="white"/>
<path d="M793.969 345.264C786.602 345.264 779.307 346.715 772.5 349.534C765.694 352.354 759.51 356.486 754.3 361.695C749.091 366.905 744.959 373.089 742.139 379.895C739.32 386.702 737.869 393.997 737.869 401.364C737.869 432.344 793.969 534.079 793.969 534.079C793.969 534.079 850.069 432.351 850.069 401.364C850.069 386.485 844.158 372.216 833.638 361.695C823.117 351.175 808.848 345.264 793.969 345.264ZM793.969 428.723C788.827 428.723 783.8 427.198 779.524 424.341C775.248 421.484 771.916 417.424 769.948 412.673C767.98 407.922 767.465 402.694 768.469 397.651C769.472 392.607 771.948 387.974 775.584 384.338C779.22 380.702 783.853 378.226 788.897 377.223C793.94 376.219 799.168 376.734 803.919 378.702C808.67 380.67 812.73 384.003 815.587 388.278C818.444 392.554 819.969 397.581 819.969 402.723C819.969 409.619 817.23 416.232 812.354 421.108C807.478 425.984 800.865 428.723 793.969 428.723Z" fill="#E17B21"/>
<path d="M941.313 129.883C938.121 130.634 932.644 130.9 926.346 130.882C909.224 130.836 886.002 128.714 886.002 128.714C886.002 128.714 765.894 123.976 681.285 76.3598C681.285 76.3598 669.158 67.9734 682.305 60.3044C684.324 59.1652 686.44 58.2062 688.627 57.4385L688.792 57.3096C690.315 56.2136 691.933 55.2561 693.627 54.4485C698.611 52.0299 706.839 49.4495 716.132 52.2145L945.528 118.807C945.528 118.807 953.19 127.081 941.313 129.883Z" fill="#984700"/>
<path d="M896.788 107.001L950.051 78.2552L971.187 84.6417L945.529 118.806C945.529 118.806 896.598 113.196 896.788 107.001Z" fill="#984700"/>
<path d="M776.029 70.7373L876.984 55.3499L892.311 60.5697L845.79 74.9877L830.121 88.7114L776.029 70.7373Z" fill="#984700"/>
<path d="M926.346 130.882C909.224 130.836 886.002 128.714 886.002 128.714C886.002 128.714 765.894 123.976 681.285 76.3598C681.285 76.3598 669.158 67.9734 682.305 60.3044L682.325 60.4781C682.325 60.4781 699.958 75.8345 790.497 97.9644L926.346 130.882Z" fill="#E17B21"/>
<path d="M910.751 128.205L952.196 151.378L963.306 151.508L939.617 128.688C939.617 128.688 908.877 118.079 910.751 128.205Z" fill="#984700"/>
<path d="M697.913 64.3246C695.827 64.1037 691.486 60.0292 688.809 57.3118C690.332 56.2158 691.95 55.2582 693.644 54.4506C695.809 56.5785 699.699 60.0705 702.078 60.2448C705.512 60.5243 701.055 64.6529 697.913 64.3246Z" fill="#E17B21"/>
<path d="M884.008 187.432L855.815 185.459L783.572 122.679L770.162 111.023L763.649 105.359C778.355 95.7438 830.811 117.938 830.811 117.938C831.251 118.516 831.555 119.187 831.701 119.899C831.846 120.611 831.829 121.346 831.651 122.051C831.074 124.731 830.054 127.296 828.632 129.64C828.462 129.936 828.36 130.092 828.36 130.092L884.008 187.432Z" fill="#984700"/>
<path opacity="0.03" d="M784.452 159.964C782.728 159.413 780.879 159.387 779.14 159.889C778.096 160.211 776.996 160.308 775.912 160.175C774.828 160.042 773.784 159.681 772.848 159.116C771.741 158.458 770.503 158.049 769.222 157.917C767.94 157.785 766.645 157.933 765.426 158.351C764.727 158.618 763.973 158.712 763.229 158.624C760.229 158.255 758.104 154.923 758.074 150.871C758.728 150.509 759.305 150.023 759.773 149.44C760.692 148.173 761.921 147.165 763.342 146.512C764.764 145.859 766.33 145.584 767.889 145.712C769.424 145.956 770.87 146.592 772.088 147.559C773.305 148.525 774.253 149.789 774.839 151.229C775.259 152.142 775.907 152.93 776.722 153.517C777.537 154.105 778.489 154.472 779.487 154.583L779.566 154.592C781.954 154.879 783.788 157.046 784.452 159.964Z" fill="black"/>
<path d="M932.84 161.352L927.598 163.832L931.2 158.84C930.448 158.072 929.461 157.577 928.396 157.432L928.318 157.423C927.98 157.388 927.646 157.321 927.321 157.224L925.553 158.066L926.416 156.871C925.301 156.321 924.387 155.433 923.806 154.334L920.635 155.844L922.907 152.69C922.249 151.584 921.352 150.638 920.283 149.922C919.213 149.206 917.997 148.737 916.724 148.549C915.165 148.42 913.599 148.696 912.177 149.35C910.755 150.003 909.526 151.012 908.609 152.279C907.982 153.065 907.159 153.671 906.222 154.036C905.285 154.4 904.269 154.509 903.276 154.353L903.114 154.333C899.736 153.918 896.527 157.411 895.947 162.137C895.367 166.862 897.635 171.028 901.014 171.443C901.756 171.531 902.509 171.438 903.207 171.17C904.426 170.753 905.721 170.605 907.002 170.737C908.284 170.869 909.521 171.278 910.629 171.935C911.565 172.499 912.61 172.859 913.694 172.992C914.779 173.125 915.879 173.029 916.924 172.708C918.147 172.348 919.434 172.254 920.697 172.435C921.959 172.615 923.168 173.064 924.242 173.753C924.852 174.173 925.554 174.441 926.288 174.534C929.663 174.948 932.875 171.457 933.456 166.73C933.704 164.914 933.492 163.065 932.84 161.352Z" fill="#F2F2F2"/>
<path opacity="0.03" d="M922.16 172.748C920.436 172.197 918.587 172.171 916.849 172.673C915.805 172.994 914.705 173.092 913.62 172.958C912.536 172.825 911.492 172.465 910.557 171.9C909.449 171.242 908.212 170.833 906.93 170.7C905.649 170.568 904.354 170.717 903.135 171.135C902.435 171.402 901.681 171.496 900.937 171.408C897.938 171.039 895.812 167.707 895.783 163.655C896.436 163.293 897.013 162.807 897.481 162.223C898.399 160.957 899.629 159.948 901.05 159.295C902.472 158.642 904.038 158.367 905.598 158.496C907.133 158.74 908.579 159.376 909.796 160.342C911.014 161.309 911.961 162.573 912.547 164.013C912.968 164.928 913.619 165.717 914.437 166.305C915.254 166.894 916.21 167.26 917.211 167.368L917.289 167.378C919.662 167.662 921.497 169.83 922.16 172.748Z" fill="black"/>
<path d="M738.964 148.568L733.723 151.048L737.324 146.056C736.572 145.288 735.586 144.793 734.521 144.649L734.442 144.639C734.105 144.604 733.771 144.537 733.445 144.44L731.678 145.282L732.541 144.087C731.425 143.537 730.512 142.649 729.93 141.55L726.76 143.06L729.032 139.906C728.373 138.8 727.477 137.855 726.407 137.138C725.338 136.422 724.122 135.953 722.849 135.765C721.289 135.637 719.723 135.913 718.302 136.566C716.88 137.22 715.651 138.229 714.733 139.496C714.107 140.282 713.284 140.888 712.347 141.252C711.41 141.616 710.394 141.726 709.401 141.569L709.239 141.549C705.861 141.135 702.652 144.628 702.072 149.353C701.491 154.079 703.76 158.244 707.138 158.659C707.881 158.748 708.634 158.654 709.332 158.386C710.551 157.969 711.846 157.821 713.127 157.953C714.408 158.086 715.646 158.494 716.754 159.151C717.689 159.717 718.732 160.08 719.816 160.216C720.901 160.352 722.001 160.258 723.047 159.94C724.27 159.579 725.557 159.486 726.819 159.665C728.082 159.845 729.291 160.294 730.365 160.982C730.975 161.402 731.677 161.67 732.411 161.763C735.786 162.177 738.999 158.685 739.579 153.959C739.83 152.139 739.618 150.285 738.964 148.568Z" fill="#F2F2F2"/>
<path opacity="0.03" d="M934.748 70.2314C933.024 69.6807 931.175 69.6547 929.436 70.1566C928.392 70.4782 927.292 70.5756 926.208 70.4424C925.123 70.3093 924.08 69.9486 923.144 69.384C922.037 68.7259 920.799 68.3165 919.518 68.1844C918.236 68.0522 916.941 68.2005 915.722 68.6188C915.022 68.8856 914.268 68.979 913.525 68.891C910.525 68.5227 908.399 65.1908 908.37 61.1391C909.024 60.7767 909.601 60.2904 910.068 59.7073C910.987 58.4407 912.216 57.4322 913.638 56.7792C915.06 56.1262 916.626 55.8509 918.185 55.9797C919.72 56.2237 921.166 56.8597 922.384 57.8262C923.601 58.7927 924.549 60.057 925.134 61.4968C925.555 62.4115 926.206 63.2014 927.024 63.7895C927.841 64.3776 928.797 64.7437 929.798 64.8522L929.877 64.8618C932.25 65.1461 934.084 67.3138 934.748 70.2314Z" fill="black"/>
<path d="M680.606 99.8069L677.995 101.044L679.792 98.5543C679.417 98.1696 678.925 97.9215 678.393 97.8496L678.355 97.8449C678.187 97.8259 678.02 97.7927 677.857 97.7454L676.974 98.164L677.401 97.5817C676.845 97.3065 676.39 96.8628 676.101 96.3138L674.52 97.0718L675.665 95.4996C675.337 94.9482 674.889 94.4769 674.356 94.1201C673.822 93.7634 673.216 93.5301 672.58 93.4373C671.804 93.3717 671.024 93.5088 670.316 93.8352C669.609 94.1616 668.998 94.6661 668.544 95.2993C668.232 95.6923 667.82 95.9952 667.352 96.1769C666.884 96.3586 666.376 96.4125 665.88 96.3333L665.798 96.3233C664.114 96.1165 662.513 97.8614 662.224 100.218C661.935 102.574 663.066 104.653 664.75 104.86C665.121 104.904 665.497 104.858 665.846 104.725C666.454 104.516 667.1 104.442 667.739 104.508C668.379 104.574 668.996 104.778 669.549 105.107C670.014 105.386 670.532 105.564 671.071 105.63C671.609 105.697 672.155 105.649 672.674 105.491C673.284 105.31 673.926 105.264 674.556 105.353C675.186 105.443 675.789 105.668 676.325 106.011C676.629 106.219 676.978 106.352 677.343 106.399C679.031 106.607 680.628 104.864 680.917 102.506C681.041 101.594 680.934 100.665 680.605 99.8057L680.606 99.8069Z" fill="#F2F2F2"/>
<path opacity="0.03" d="M740.794 28.8218C739.934 28.5451 739.011 28.5324 738.143 28.7855C737.624 28.9424 737.078 28.99 736.54 28.9251C735.996 28.8582 735.472 28.6761 735.004 28.3909C734.451 28.0636 733.833 27.8602 733.194 27.7949C732.554 27.7297 731.908 27.804 731.3 28.0128C730.952 28.1462 730.577 28.1928 730.208 28.1486C728.711 27.9628 727.649 26.3 727.634 24.2801C727.959 24.0979 728.248 23.8557 728.483 23.5663C728.939 22.9351 729.55 22.4322 730.257 22.106C730.964 21.7798 731.743 21.6415 732.519 21.7043C733.284 21.8297 734.004 22.1486 734.611 22.6306C735.218 23.1126 735.692 23.7419 735.987 24.4585C736.198 24.9157 736.523 25.3104 736.932 25.6037C737.341 25.8969 737.819 26.0788 738.32 26.1312L738.361 26.1362C738.992 26.2813 739.564 26.6165 739.999 27.0967C740.435 27.577 740.712 28.179 740.794 28.8218Z" fill="black"/>
<path d="M943.015 202.454L940.404 203.691L942.201 201.201C941.827 200.816 941.334 200.568 940.802 200.496L940.765 200.492C940.596 200.473 940.429 200.439 940.266 200.392L939.384 200.811L939.811 200.228C939.255 199.953 938.8 199.509 938.511 198.961L936.929 199.718L938.074 198.146C937.746 197.595 937.299 197.124 936.765 196.767C936.231 196.41 935.625 196.177 934.99 196.084C934.213 196.018 933.433 196.156 932.726 196.482C932.018 196.808 931.408 197.313 930.954 197.946C930.641 198.339 930.23 198.642 929.761 198.824C929.293 199.005 928.785 199.059 928.289 198.98L928.208 198.97C926.523 198.763 924.923 200.508 924.633 202.864C924.344 205.221 925.475 207.3 927.159 207.507C927.53 207.551 927.906 207.505 928.255 207.371C928.863 207.163 929.509 207.089 930.149 207.155C930.788 207.221 931.406 207.425 931.958 207.754C932.423 208.033 932.942 208.211 933.48 208.277C934.019 208.343 934.565 208.296 935.084 208.137C935.694 207.957 936.336 207.91 936.966 208C937.596 208.09 938.199 208.314 938.734 208.658C939.038 208.866 939.387 208.999 939.753 209.046C941.44 209.253 943.037 207.511 943.327 205.153C943.451 204.241 943.344 203.312 943.015 202.452L943.015 202.454Z" fill="#F2F2F2"/>
<path opacity="0.03" d="M937.688 208.139C936.828 207.862 935.904 207.849 935.037 208.102C934.518 208.259 933.972 208.307 933.434 208.242C932.889 208.175 932.366 207.993 931.897 207.708C931.344 207.38 930.726 207.177 930.087 207.112C929.448 207.047 928.802 207.121 928.194 207.33C927.846 207.463 927.472 207.51 927.102 207.466C925.604 207.28 924.542 205.617 924.527 203.597C924.853 203.415 925.141 203.173 925.377 202.883C925.832 202.252 926.443 201.749 927.15 201.423C927.857 201.097 928.636 200.958 929.412 201.021C930.177 201.146 930.897 201.465 931.504 201.947C932.111 202.429 932.585 203.059 932.881 203.775C933.091 204.233 933.417 204.627 933.826 204.921C934.235 205.214 934.713 205.396 935.213 205.448L935.254 205.453C935.886 205.598 936.458 205.933 936.893 206.414C937.328 206.894 937.605 207.496 937.688 208.139Z" fill="black"/>
<path d="M716.982 182.949L714.37 184.186L716.167 181.696C715.793 181.311 715.3 181.063 714.769 180.991L714.731 180.987C714.562 180.968 714.395 180.934 714.232 180.887L713.35 181.306L713.777 180.723C713.221 180.448 712.766 180.004 712.477 179.456L710.896 180.213L712.041 178.641C711.712 178.09 711.265 177.619 710.731 177.262C710.198 176.905 709.591 176.672 708.956 176.579C708.18 176.513 707.4 176.651 706.692 176.977C705.985 177.303 705.374 177.808 704.92 178.441C704.607 178.834 704.196 179.137 703.727 179.319C703.259 179.5 702.751 179.554 702.255 179.475L702.174 179.465C700.489 179.258 698.889 181.003 698.6 183.359C698.31 185.716 699.441 187.795 701.126 188.002C701.496 188.046 701.872 188 702.221 187.866C702.829 187.658 703.475 187.583 704.115 187.649C704.754 187.715 705.372 187.919 705.924 188.248C706.39 188.527 706.908 188.705 707.446 188.771C707.985 188.837 708.531 188.79 709.05 188.631C709.66 188.451 710.302 188.404 710.932 188.494C711.562 188.584 712.165 188.808 712.701 189.152C713.005 189.36 713.354 189.493 713.719 189.54C715.406 189.747 717.004 188.005 717.293 185.647C717.417 184.735 717.31 183.808 716.982 182.949Z" fill="#F2F2F2"/>
<path opacity="0.03" d="M711.654 188.634C710.794 188.357 709.87 188.344 709.003 188.597C708.484 188.754 707.938 188.802 707.4 188.737C706.855 188.67 706.332 188.488 705.863 188.203C705.31 187.875 704.693 187.672 704.053 187.607C703.414 187.542 702.768 187.616 702.16 187.825C701.812 187.958 701.437 188.005 701.067 187.961C699.571 187.775 698.508 186.112 698.493 184.092C698.819 183.91 699.107 183.668 699.343 183.378C699.799 182.747 700.41 182.244 701.117 181.918C701.824 181.592 702.603 181.453 703.379 181.516C704.144 181.642 704.864 181.96 705.471 182.442C706.078 182.925 706.552 183.554 706.847 184.27C707.057 184.728 707.383 185.122 707.792 185.416C708.201 185.709 708.679 185.891 709.179 185.943L709.22 185.948C709.852 186.093 710.424 186.429 710.859 186.909C711.294 187.389 711.571 187.991 711.654 188.634Z" fill="black"/>
<path d="M861.029 223.869L855.788 226.348L859.389 221.356C858.637 220.588 857.651 220.093 856.586 219.949L856.508 219.939C856.17 219.904 855.836 219.838 855.51 219.74L853.743 220.582L854.606 219.387C853.49 218.837 852.577 217.949 851.995 216.85L848.825 218.36L851.096 215.206C850.438 214.1 849.541 213.155 848.472 212.439C847.402 211.722 846.187 211.253 844.914 211.065C843.354 210.937 841.788 211.213 840.367 211.866C838.945 212.52 837.716 213.529 836.798 214.796C836.172 215.582 835.349 216.188 834.412 216.552C833.475 216.916 832.459 217.026 831.466 216.87L831.304 216.85C827.926 216.435 824.717 219.928 824.137 224.653C823.557 229.379 825.825 233.544 829.203 233.959C829.946 234.048 830.699 233.954 831.397 233.687C832.616 233.269 833.911 233.122 835.192 233.254C836.474 233.386 837.711 233.795 838.819 234.452C839.754 235.018 840.797 235.38 841.881 235.516C842.966 235.652 844.066 235.558 845.112 235.241C846.335 234.88 847.622 234.786 848.884 234.966C850.147 235.145 851.356 235.594 852.43 236.282C853.04 236.702 853.742 236.97 854.477 237.063C857.851 237.478 861.064 233.986 861.644 229.26C861.895 227.44 861.683 225.586 861.029 223.869Z" fill="#F2F2F2"/>
<path opacity="0.03" d="M841.864 15.3618C840.14 14.8111 838.291 14.785 836.553 15.2869C835.509 15.6085 834.409 15.7059 833.324 15.5728C832.24 15.4397 831.196 15.079 830.261 14.5144C829.153 13.8562 827.916 13.4469 826.634 13.3147C825.353 13.1826 824.057 13.3309 822.839 13.7492C822.139 14.016 821.385 14.1094 820.641 14.0214C817.642 13.6531 815.516 10.3212 815.487 6.26943C816.14 5.90709 816.717 5.42078 817.185 4.83771C818.103 3.57103 819.333 2.56252 820.754 1.90957C822.176 1.25661 823.742 0.981264 825.302 1.11011C826.837 1.35406 828.283 1.99003 829.5 2.95653C830.718 3.92302 831.665 5.18733 832.251 6.62715C832.672 7.5418 833.323 8.33168 834.141 8.91974C834.958 9.50781 835.914 9.87398 836.915 9.98254L836.993 9.99217C839.366 10.2765 841.201 12.4442 841.864 15.3618Z" fill="black"/>
<path d="M1011.6 77.9424L1008.99 79.1793L1010.79 76.6899C1010.42 76.3052 1009.92 76.0571 1009.39 75.9852L1009.35 75.9806C1009.19 75.9616 1009.02 75.9283 1008.86 75.8811L1007.97 76.2996L1008.4 75.7173C1007.84 75.4421 1007.39 74.9984 1007.1 74.4494L1005.52 75.2074L1006.66 73.6351C1006.33 73.0837 1005.89 72.6124 1005.35 72.2556C1004.82 71.8989 1004.21 71.6656 1003.58 71.5728C1002.8 71.5074 1002.02 71.6446 1001.31 71.971C1000.61 72.2974 999.997 72.8019 999.543 73.4349C999.23 73.8281 998.819 74.131 998.35 74.3127C997.882 74.4944 997.373 74.5482 996.877 74.4688L996.797 74.4589C995.112 74.252 993.511 75.9969 993.222 78.3532C992.932 80.7095 994.063 82.7888 995.749 82.9958C996.12 83.0402 996.496 82.9937 996.844 82.8603C997.452 82.6515 998.099 82.5775 998.738 82.6435C999.377 82.7095 999.995 82.9139 1000.55 83.2424C1001.01 83.5215 1001.53 83.6998 1002.07 83.7659C1002.61 83.832 1003.15 83.7844 1003.67 83.6262C1004.28 83.4459 1004.93 83.3991 1005.56 83.489C1006.19 83.5788 1006.79 83.8033 1007.32 84.147C1007.63 84.3548 1007.98 84.4877 1008.34 84.535C1010.03 84.7422 1011.63 82.9998 1011.92 80.6415C1012.04 79.7295 1011.93 78.802 1011.6 77.9424Z" fill="#F2F2F2"/>
<path opacity="0.03" d="M1006.28 83.6274C1005.42 83.3506 1004.49 83.3379 1003.62 83.591C1003.11 83.7481 1002.56 83.7956 1002.02 83.7306C1001.48 83.6621 1000.96 83.4807 1000.5 83.1983C999.947 82.871 999.33 82.6676 998.69 82.6023C998.051 82.537 997.405 82.6113 996.797 82.8201C996.449 82.9535 996.074 83.0002 995.704 82.956C994.209 82.7703 993.146 81.1075 993.131 79.0876C993.457 78.9054 993.745 78.6632 993.981 78.3738C994.437 77.7426 995.048 77.2397 995.755 76.9135C996.462 76.5873 997.241 76.449 998.017 76.5118C998.782 76.6371 999.502 76.9559 1000.11 77.438C1000.72 77.92 1001.19 78.5493 1001.49 79.266C1001.69 79.7202 1002.02 80.1128 1002.42 80.4055C1002.83 80.6982 1003.3 80.881 1003.8 80.9364L1003.84 80.9414C1004.47 81.086 1005.04 81.421 1005.48 81.9013C1005.92 82.3817 1006.19 82.9841 1006.28 83.6274Z" fill="black"/>
<path d="M47.6894 777.789L27.2961 784.415L28.348 787.652L48.7412 781.026L47.6894 777.789Z" fill="#984700"/>
<path d="M195.373 730.605L191.481 732.944L31.5986 784.988L29.0715 782.106C24.6963 777.174 21.7785 771.123 20.6441 764.628C19.829 759.777 20.0614 754.619 23.3325 751.348C23.3325 751.348 2.80813 720.886 22.8481 701.268C42.8881 681.649 103.491 672.874 103.491 672.874L146.691 689.359C146.691 689.359 162.743 683.823 175.062 691.894C179.545 694.926 183.012 699.239 185.01 704.269L187.202 709.837L195.373 730.605Z" fill="#E17B21"/>
<path d="M166.409 760.971C177.314 757.428 183.282 745.715 179.739 734.809C176.195 723.904 164.483 717.936 153.577 721.48C142.672 725.023 136.704 736.736 140.248 747.641C143.791 758.546 155.504 764.514 166.409 760.971Z" fill="#984700"/>
<path d="M163.369 751.619C169.109 749.754 172.25 743.589 170.385 737.85C168.52 732.11 162.355 728.969 156.616 730.834C150.876 732.699 147.735 738.864 149.6 744.603C151.465 750.343 157.63 753.484 163.369 751.619Z" fill="#CCCCCC"/>
<path d="M68.9902 792.682C79.8954 789.139 85.8634 777.426 82.3201 766.521C78.7767 755.615 67.0639 749.647 56.1587 753.191C45.2535 756.734 39.2855 768.447 42.8289 779.352C46.3722 790.257 58.085 796.225 68.9902 792.682Z" fill="#984700"/>
<path d="M65.9512 783.329C71.6908 781.464 74.8319 775.299 72.967 769.56C71.1021 763.82 64.9373 760.679 59.1977 762.544C53.4581 764.409 50.317 770.574 52.1819 776.313C54.0469 782.053 60.2116 785.194 65.9512 783.329Z" fill="#CCCCCC"/>
<path d="M132.041 690.551L84.2837 706.093L78.4502 707.988L68.607 711.192L68.3734 710.473L65.5549 701.821L62.3899 692.103L68.9395 689.975L74.7673 688.072L85.0939 684.709L90.9245 682.814L102.846 678.933L132.041 690.551Z" fill="white"/>
<path d="M60.8382 713.725L35.5976 721.942L33.9814 716.991L31.1695 708.337L29.3796 702.851L33.0761 701.65L38.9045 699.748L54.6271 694.632L60.8382 713.725Z" fill="white"/>
<path d="M76.4809 724.384L73.2437 725.436L75.242 731.586L78.4792 730.534L76.4809 724.384Z" fill="#984700"/>
<path d="M128.089 701.496L127.034 698.259L120.886 700.264L121.941 703.5L128.089 701.496Z" fill="#984700"/>
<path d="M119.217 687.419L119.572 687.304C120.461 687.015 121.398 686.904 122.329 686.977C123.26 687.051 124.168 687.307 125 687.731C125.833 688.155 126.573 688.739 127.18 689.449C127.787 690.159 128.247 690.982 128.536 691.871C129.119 693.665 128.965 695.617 128.109 697.298C127.253 698.979 125.764 700.251 123.97 700.834L123.613 700.95L119.217 687.419Z" fill="#984700"/>
<path d="M187.201 709.837C184.841 710.893 182.183 711.083 179.696 710.373C177.209 709.664 175.052 708.101 173.603 705.96C172.153 703.818 171.505 701.234 171.772 698.662C172.039 696.089 173.203 693.693 175.061 691.894C179.545 694.927 183.011 699.239 185.01 704.27L187.201 709.837Z" fill="#984700"/>
<path d="M1054.43 733.373C1063.35 728.226 1066.4 716.827 1061.26 707.913C1056.11 698.998 1044.71 695.944 1035.8 701.091C1026.88 706.238 1023.83 717.636 1028.97 726.551C1034.12 735.465 1045.52 738.52 1054.43 733.373Z" fill="#090814"/>
<path d="M1051.33 727.993C1057.27 724.562 1059.31 716.963 1055.87 711.02C1052.44 705.077 1044.84 703.041 1038.9 706.472C1032.96 709.903 1030.92 717.502 1034.35 723.445C1037.78 729.388 1045.38 731.424 1051.33 727.993Z" fill="white"/>
<path d="M1048.65 723.359C1052.03 721.405 1053.19 717.078 1051.24 713.694C1049.29 710.31 1044.96 709.151 1041.58 711.104C1038.19 713.058 1037.03 717.385 1038.99 720.769C1040.94 724.153 1045.27 725.312 1048.65 723.359Z" fill="#090814"/>
<path d="M961.177 787.215C970.091 782.068 973.146 770.669 967.999 761.755C962.852 752.841 951.453 749.786 942.539 754.933C933.624 760.08 930.57 771.479 935.717 780.393C940.864 789.307 952.262 792.362 961.177 787.215Z" fill="#090814"/>
<path d="M958.069 781.835C964.012 778.404 966.048 770.805 962.617 764.862C959.186 758.919 951.587 756.883 945.644 760.314C939.702 763.745 937.665 771.344 941.097 777.287C944.528 783.23 952.127 785.266 958.069 781.835Z" fill="white"/>
<path d="M1062.76 696.809C1057.6 692.723 1040.91 680.773 1024.73 682.972C1024.6 682.988 1024.48 683.02 1024.37 683.066L978.925 701.285C978.565 701.43 978.276 701.71 978.121 702.065C977.965 702.42 977.955 702.822 978.093 703.185L979.978 708.15C980.107 708.49 980.357 708.771 980.681 708.939C984.721 711.014 1011.34 725.572 989.465 738.201C967.591 750.83 952.529 738.662 949.975 736.448C949.736 736.24 949.569 735.961 949.499 735.652L944.005 710.827C943.959 710.618 943.868 710.423 943.738 710.253C943.609 710.084 943.444 709.945 943.255 709.845L943.043 702.748L950.126 702.688L952.91 701.124L965.197 700.606L965.307 696.358L940.237 697.888C940.237 697.888 938.97 695.618 931.66 697.452L919.207 698.664L918.876 700.848L923.245 701.514L924.58 703.135L927.017 702.524L935.861 708.179L936.001 711.183L937.862 711.052L937.391 711.197C937.063 711.299 936.78 711.513 936.592 711.802C936.404 712.09 936.323 712.435 936.362 712.777L938.494 731.696C938.525 731.986 938.471 732.279 938.338 732.539L936.864 735.411C936.725 735.68 936.673 735.984 936.713 736.283L937.786 744.34C937.819 744.583 937.913 744.814 938.058 745.012C934.531 748.086 931.759 751.93 929.956 756.247C928.153 760.564 927.368 765.238 927.661 769.907L936.872 771.364C936.872 771.364 943.036 759.317 963.122 756.554C968.49 759.321 974.72 760.592 980.872 757.498C997.091 749.345 1023.61 735.228 1024.53 729.917C1025.2 726.026 1025.78 723.51 1026.04 722.438C1026.13 722.062 1026.37 721.737 1026.7 721.532L1062.62 699.232C1062.82 699.107 1062.99 698.935 1063.11 698.731C1063.24 698.526 1063.31 698.296 1063.32 698.059C1063.33 697.822 1063.29 697.585 1063.19 697.368C1063.1 697.151 1062.95 696.961 1062.76 696.813L1062.76 696.809Z" fill="#E17B21"/>
<path d="M934.623 708.091C937.265 706.566 938.169 703.189 936.645 700.548C935.12 697.907 931.743 697.002 929.101 698.527C926.46 700.051 925.555 703.429 927.08 706.07C928.605 708.711 931.982 709.616 934.623 708.091Z" fill="#090814"/>
<path d="M1022.87 684.068C1022.81 684.101 1022.76 684.133 1022.7 684.168L981.818 705.702C980.941 706.169 979.944 706.358 978.957 706.243C977.971 706.129 977.043 705.717 976.296 705.063L974.832 703.785C974.249 703.277 973.793 702.639 973.503 701.923C973.213 701.206 973.095 700.431 973.161 699.661C973.226 698.89 973.473 698.146 973.88 697.489C974.287 696.832 974.843 696.28 975.504 695.878L1016.27 671.072C1016.89 670.691 1017.6 670.455 1018.33 670.381C1019.06 670.307 1019.79 670.397 1020.48 670.645C1021.17 670.892 1021.8 671.291 1022.31 671.812C1022.83 672.333 1023.22 672.962 1023.46 673.654L1025.04 678.193C1025.43 679.272 1025.42 680.452 1025.02 681.526C1024.62 682.6 1023.86 683.5 1022.87 684.069L1022.87 684.068Z" fill="#090814"/>
<path d="M955.394 777.201C958.778 775.247 959.937 770.92 957.984 767.536C956.03 764.152 951.703 762.993 948.319 764.946C944.935 766.9 943.776 771.227 945.729 774.611C947.683 777.995 952.01 779.154 955.394 777.201Z" fill="#090814"/>
<path d="M1048.79 691.853C1048.31 692.131 1047.76 692.275 1047.2 692.27C1046.65 692.264 1046.1 692.109 1045.63 691.821L1039.43 688.089C1038.95 687.805 1038.56 687.397 1038.3 686.909C1038.03 686.42 1037.91 685.869 1037.93 685.314C1037.95 684.758 1038.11 684.217 1038.41 683.748C1038.71 683.279 1039.13 682.899 1039.62 682.651L1045.28 679.762C1045.81 679.499 1046.39 679.387 1046.97 679.437C1047.55 679.488 1048.11 679.701 1048.58 680.05L1052.37 682.919C1052.71 683.176 1053 683.501 1053.21 683.872C1053.41 684.243 1053.55 684.653 1053.59 685.077C1053.63 685.501 1053.59 685.929 1053.46 686.336C1053.34 686.742 1053.13 687.118 1052.85 687.44L1049.59 691.195C1049.36 691.458 1049.09 691.68 1048.79 691.854L1048.79 691.853Z" fill="#090814"/>
</g>
<defs>
<clipPath id="clip0_7_2">
<rect width="1070.57" height="862.856" fill="white"/>
</clipPath>
</defs>
</svg>
